{"glyphs":{"0":{"ha":1014,"x_min":0,"x_max":0,"o":"m 939 488 b 508 989 939 771 768 989 b 75 485 249 989 75 768 b 506 -17 75 201 246 -17 b 939 488 765 -17 939 204 z m 719 485 b 508 176 719 307 638 176 b 294 488 379 176 294 308 b 506 796 294 667 376 796 b 719 485 635 796 719 663 z "},"1":{"ha":586,"x_min":0,"x_max":0,"o":"m 33 896 l 78 721 l 247 763 l 247 0 l 458 0 l 458 979 l 313 979 z "},"2":{"ha":865,"x_min":0,"x_max":0,"o":"m 429 794 b 560 668 506 794 560 750 b 392 435 560 588 513 535 l 68 169 l 68 0 l 788 0 l 788 185 l 364 185 l 522 307 b 778 685 694 440 778 522 b 443 986 778 867 650 986 b 81 785 269 986 176 915 l 231 664 b 429 794 303 753 354 794 z "},"3":{"ha":863,"x_min":0,"x_max":0,"o":"m 492 789 l 260 556 l 293 419 l 382 419 b 572 294 504 419 572 375 b 435 175 572 221 515 175 b 200 292 336 175 267 217 l 53 151 b 432 -17 136 53 257 -17 b 782 303 649 -17 782 118 b 521 576 782 485 654 554 l 767 811 l 767 972 l 110 972 l 110 789 z "},"4":{"ha":957,"x_min":0,"x_max":0,"o":"m 576 979 l 43 361 l 78 210 l 553 210 l 553 0 l 757 0 l 757 210 l 888 210 l 888 383 l 757 383 l 757 979 z m 553 383 l 294 383 l 553 686 z "},"5":{"ha":875,"x_min":0,"x_max":0,"o":"m 125 493 l 249 411 b 411 447 294 431 350 447 b 583 314 515 447 583 399 b 421 178 583 226 521 178 b 189 283 335 178 263 217 l 60 129 b 424 -17 154 39 268 -17 b 793 321 647 -17 793 114 b 453 633 793 542 644 633 b 325 617 399 633 364 626 l 336 785 l 750 785 l 750 972 l 153 972 z "},"6":{"ha":919,"x_min":0,"x_max":0,"o":"m 806 882 b 501 989 719 950 633 989 b 75 457 211 989 75 758 b 190 88 75 263 119 158 b 471 -17 258 19 344 -17 b 842 321 682 -17 842 121 b 500 632 842 525 693 632 b 299 569 404 632 347 601 b 494 794 313 697 374 794 b 693 717 578 794 629 765 z m 629 311 b 463 167 629 226 568 167 b 293 313 357 167 293 228 b 460 454 293 396 354 454 b 629 311 565 454 629 394 z "},"7":{"ha":860,"x_min":0,"x_max":0,"o":"m 94 788 l 551 788 l 117 0 l 358 0 l 794 811 l 794 972 l 94 972 z "},"8":{"ha":875,"x_min":0,"x_max":0,"o":"m 813 274 b 656 504 813 390 754 453 b 779 718 731 550 779 613 b 438 986 779 868 643 986 b 96 718 232 986 96 868 b 219 504 96 613 144 550 b 63 268 117 457 63 388 b 438 -14 63 97 222 -14 b 813 274 653 -14 813 92 z m 576 694 b 438 575 576 625 522 575 b 299 696 353 575 299 626 b 438 810 299 757 350 810 b 576 694 525 810 576 756 z m 606 285 b 438 163 606 215 543 163 b 269 285 332 163 269 215 b 438 406 269 361 340 406 b 606 285 535 406 606 361 z "},"9":{"ha":919,"x_min":0,"x_max":0,"o":"m 844 515 b 729 883 844 708 799 814 b 449 989 656 957 579 989 b 78 647 229 989 78 844 b 425 332 78 449 214 332 b 622 399 510 332 575 358 b 425 178 608 268 544 178 b 213 261 343 178 283 204 l 100 99 b 419 -17 182 31 278 -17 b 844 515 696 -17 844 199 z m 626 656 b 460 510 626 571 565 510 b 290 657 354 510 290 569 b 456 806 290 744 350 806 b 626 656 563 806 626 743 z "}," ":{"ha":417,"x_min":0,"x_max":0,"o":""},"!":{"ha":450,"x_min":0,"x_max":0,"o":"m 101 972 l 101 944 l 167 331 l 283 331 l 349 944 l 349 972 z m 338 0 l 338 222 l 113 222 l 113 0 z "},"\"":{"ha":722,"x_min":0,"x_max":0,"o":"m 407 529 l 514 529 l 665 965 l 665 972 l 432 972 z m 79 529 l 186 529 l 338 965 l 338 972 l 104 972 z "},"#":{"ha":972,"x_min":0,"x_max":0,"o":"m 924 592 l 924 769 l 818 769 l 853 972 l 669 972 l 635 769 l 433 769 l 468 972 l 285 972 l 250 769 l 97 769 l 97 592 l 219 592 l 185 386 l 49 386 l 49 208 l 154 208 l 118 0 l 301 0 l 338 208 l 539 208 l 503 0 l 686 0 l 722 208 l 875 208 l 875 386 l 753 386 l 788 592 z m 604 592 l 569 386 l 368 386 l 403 592 z "},"$":{"ha":897,"x_min":0,"x_max":0,"o":"m 828 276 b 526 576 828 432 738 519 l 526 786 b 699 704 585 771 643 742 l 792 867 b 533 969 717 919 632 956 l 533 1053 l 389 1053 l 389 972 b 97 699 214 954 97 853 b 396 403 97 535 196 457 l 396 182 b 169 294 314 199 244 238 l 61 136 b 389 4 153 67 269 19 l 389 -136 l 533 -136 l 533 1 b 828 276 710 21 828 122 z m 396 611 b 300 711 319 639 300 668 b 396 799 300 756 329 789 z m 625 265 b 526 175 625 215 592 185 l 526 369 b 625 265 601 342 625 313 z "},"%":{"ha":1194,"x_min":0,"x_max":0,"o":"m 535 736 b 300 983 535 874 440 983 b 63 733 158 983 63 872 b 297 486 63 596 157 486 b 535 736 439 486 535 597 z m 1035 972 l 869 972 l 160 0 l 325 0 z m 1132 239 b 897 486 1132 376 1038 486 b 660 236 756 486 660 375 b 894 -11 660 99 754 -11 b 1132 239 1036 -11 1132 100 z m 389 733 b 300 613 389 668 358 613 b 208 736 244 613 208 669 b 297 857 208 801 239 857 b 389 733 353 857 389 800 z m 986 236 b 897 115 986 171 956 115 b 806 239 842 115 806 172 b 894 360 806 304 836 360 b 986 236 950 360 986 303 z "},"&":{"ha":967,"x_min":0,"x_max":0,"o":"m 928 90 l 785 233 b 913 439 833 299 875 371 l 756 525 b 661 358 725 465 693 408 l 532 488 b 736 743 653 535 736 611 b 463 989 736 882 628 989 b 168 732 275 989 168 867 b 236 536 168 664 189 604 b 47 268 114 481 47 393 b 374 -14 47 94 188 -14 b 658 94 486 -14 579 29 l 771 -19 z m 550 731 b 421 600 550 668 506 632 b 364 722 381 646 364 678 b 458 822 364 782 401 822 b 550 731 513 822 550 789 z m 539 217 b 399 161 494 182 447 161 b 263 276 319 161 263 207 b 353 406 263 325 289 372 z "},"’":{"ha":397,"x_min":0,"x_max":0,"o":"m 43 613 l 61 525 b 318 785 226 528 318 601 l 318 972 l 93 972 l 93 750 l 179 750 b 43 613 186 671 139 622 z "},"(":{"ha":618,"x_min":0,"x_max":0,"o":"m 560 853 l 467 993 b 82 399 211 854 82 665 b 467 -196 82 132 211 -57 l 560 -56 b 292 399 372 75 292 203 b 560 853 292 594 372 722 z "},")":{"ha":618,"x_min":0,"x_max":0,"o":"m 536 399 b 151 993 536 665 407 854 l 58 853 b 326 399 246 722 326 594 b 58 -56 326 203 246 75 l 151 -196 b 536 399 407 -57 536 132 z "},"*":{"ha":597,"x_min":0,"x_max":0,"o":"m 526 681 l 371 746 l 526 811 l 468 911 l 333 808 l 356 975 l 242 975 l 264 808 l 129 911 l 71 811 l 226 746 l 71 681 l 129 581 l 264 683 l 242 517 l 356 517 l 333 683 l 468 581 z "},"+":{"ha":889,"x_min":0,"x_max":0,"o":"m 346 585 l 94 585 l 94 393 l 346 393 l 346 143 l 543 143 l 543 393 l 794 393 l 794 585 l 543 585 l 543 835 l 346 835 z "},",":{"ha":397,"x_min":0,"x_max":0,"o":"m 36 -137 l 54 -225 b 311 35 219 -222 311 -149 l 311 222 l 86 222 l 86 0 l 172 0 b 36 -137 179 -79 132 -128 z "},"-":{"ha":567,"x_min":0,"x_max":0,"o":"m 497 329 l 497 532 l 69 532 l 69 329 z "},".":{"ha":397,"x_min":0,"x_max":0,"o":"m 311 0 l 311 222 l 86 222 l 86 0 z "},"/":{"ha":736,"x_min":0,"x_max":0,"o":"m 576 1108 l -39 -178 l 140 -178 l 756 1108 z "},":":{"ha":411,"x_min":0,"x_max":0,"o":"m 318 522 l 318 744 l 93 744 l 93 522 z m 318 0 l 318 222 l 93 222 l 93 0 z "},";":{"ha":411,"x_min":0,"x_max":0,"o":"m 318 522 l 318 744 l 93 744 l 93 522 z m 43 -137 l 61 -225 b 318 35 226 -222 318 -149 l 318 222 l 93 222 l 93 0 l 179 0 b 43 -137 186 -79 139 -128 z "},"<":{"ha":889,"x_min":0,"x_max":0,"o":"m 94 585 l 94 393 l 767 99 l 767 297 l 297 490 l 767 683 l 767 879 z "},"=":{"ha":889,"x_min":0,"x_max":0,"o":"m 115 765 l 115 574 l 774 574 l 774 765 z m 115 404 l 115 213 l 774 213 l 774 404 z "},">":{"ha":889,"x_min":0,"x_max":0,"o":"m 794 393 l 794 585 l 122 879 l 122 681 l 592 488 l 122 294 l 122 99 z "},"?":{"ha":756,"x_min":0,"x_max":0,"o":"m 249 563 l 242 556 l 274 331 l 415 331 l 431 415 b 704 696 582 446 704 518 b 368 985 704 882 568 985 b 28 835 217 985 108 924 l 156 694 b 364 790 219 758 286 790 b 492 690 444 790 492 754 b 249 563 492 615 424 569 z m 453 0 l 453 222 l 228 222 l 228 0 z "},"@":{"ha":1361,"x_min":0,"x_max":0,"o":"m 1288 439 b 682 989 1288 724 1022 989 b 74 381 342 989 74 713 b 693 -225 74 49 338 -225 b 1061 -121 838 -225 954 -186 l 1033 -76 b 693 -169 929 -137 831 -169 b 132 381 365 -169 132 75 b 682 933 132 685 368 933 b 1229 439 994 933 1229 696 b 1053 156 1229 254 1151 156 b 951 243 989 156 951 193 b 956 286 951 254 953 272 l 1021 660 l 857 686 l 842 613 b 650 707 803 665 746 707 b 339 358 488 707 339 554 b 593 90 339 193 451 90 b 799 174 683 90 751 131 b 1011 90 833 133 899 90 b 1288 439 1164 90 1288 207 z m 807 433 b 642 233 807 319 729 233 b 511 368 565 233 511 282 b 678 564 511 479 588 564 b 807 433 753 564 807 513 z "},"A":{"ha":1097,"x_min":0,"x_max":0,"o":"m 1064 0 l 647 979 l 450 979 l 33 0 l 251 0 l 340 218 l 751 218 l 840 0 z m 675 407 l 417 407 l 546 722 z "},"B":{"ha":1003,"x_min":0,"x_max":0,"o":"m 943 267 l 943 269 b 761 508 943 400 874 465 b 889 718 831 547 889 608 l 889 721 b 568 972 889 874 767 972 l 117 972 l 117 0 l 579 0 b 943 267 799 0 943 89 z m 676 682 b 522 579 676 610 617 579 l 325 579 l 325 785 l 536 785 b 676 685 626 785 676 749 z m 731 293 b 579 188 731 221 674 188 l 325 188 l 325 401 l 572 401 b 731 296 682 401 731 361 z "},"C":{"ha":1025,"x_min":0,"x_max":0,"o":"m 971 157 l 835 294 b 579 181 758 225 690 181 b 297 486 413 181 297 319 l 297 489 b 579 792 297 656 415 792 b 828 682 676 792 753 750 l 964 839 b 581 989 874 928 764 989 b 74 486 282 989 74 763 l 74 483 b 572 -17 74 204 286 -17 b 971 157 760 -17 871 50 z "},"D":{"ha":1086,"x_min":0,"x_max":0,"o":"m 1013 486 l 1013 489 b 496 972 1013 763 801 972 l 117 972 l 117 0 l 496 0 b 1013 486 801 0 1013 213 z m 789 483 b 496 193 789 311 671 193 l 331 193 l 331 779 l 496 779 b 789 486 671 779 789 658 z "},"E":{"ha":931,"x_min":0,"x_max":0,"o":"m 857 0 l 857 190 l 329 190 l 329 394 l 788 394 l 788 585 l 329 585 l 329 782 l 850 782 l 850 972 l 117 972 l 117 0 z "},"F":{"ha":911,"x_min":0,"x_max":0,"o":"m 857 778 l 857 972 l 117 972 l 117 0 l 331 0 l 331 376 l 794 376 l 794 571 l 331 571 l 331 778 z "},"G":{"ha":1089,"x_min":0,"x_max":0,"o":"m 1000 138 l 1000 560 l 578 560 l 578 375 l 793 375 l 793 236 b 592 178 739 197 669 178 b 297 486 419 178 297 308 l 297 489 b 576 792 297 654 421 792 b 831 693 689 792 756 756 l 965 856 b 583 989 864 942 758 989 b 74 486 289 989 74 763 l 74 483 b 585 -17 74 196 282 -17 b 1000 138 763 -17 900 53 z "},"H":{"ha":1056,"x_min":0,"x_max":0,"o":"m 939 0 l 939 972 l 725 972 l 725 588 l 331 588 l 331 972 l 117 972 l 117 0 l 331 0 l 331 390 l 725 390 l 725 0 z "},"I":{"ha":467,"x_min":0,"x_max":0,"o":"m 340 0 l 340 972 l 126 972 l 126 0 z "},"J":{"ha":783,"x_min":0,"x_max":0,"o":"m 682 336 l 682 972 l 463 972 l 463 346 b 332 185 463 233 413 185 b 154 282 264 185 210 221 l 19 132 b 338 -14 86 53 186 -14 b 682 336 543 -14 682 100 z "},"K":{"ha":1014,"x_min":0,"x_max":0,"o":"m 1001 0 l 588 560 l 983 972 l 725 972 l 331 547 l 331 972 l 117 972 l 117 0 l 331 0 l 331 297 l 443 414 l 744 0 z "},"L":{"ha":860,"x_min":0,"x_max":0,"o":"m 815 0 l 815 194 l 331 194 l 331 972 l 117 972 l 117 0 z "},"M":{"ha":1206,"x_min":0,"x_max":0,"o":"m 1089 0 l 1089 972 l 858 972 l 603 561 l 347 972 l 117 972 l 117 0 l 326 0 l 326 631 l 597 219 l 603 219 l 876 635 l 876 0 z "},"N":{"ha":1097,"x_min":0,"x_max":0,"o":"m 981 0 l 981 972 l 769 972 l 769 374 l 314 972 l 117 972 l 117 0 l 328 0 l 328 618 l 799 0 z "},"O":{"ha":1181,"x_min":0,"x_max":0,"o":"m 1107 486 l 1107 489 b 592 989 1107 765 892 989 b 74 486 292 989 74 763 l 74 483 b 589 -17 74 207 289 -17 b 1107 486 889 -17 1107 210 z m 883 483 b 592 181 883 317 764 181 b 297 486 419 181 297 319 l 297 489 b 589 792 297 656 417 792 b 883 486 761 792 883 653 z "},"P":{"ha":928,"x_min":0,"x_max":0,"o":"m 886 633 l 886 636 b 514 972 886 835 746 972 l 117 972 l 117 0 l 331 0 l 331 292 l 493 292 b 886 633 711 292 886 408 z m 669 629 b 500 482 669 546 607 482 l 331 482 l 331 779 l 496 779 b 669 632 603 779 669 728 z "},"Q":{"ha":1181,"x_min":0,"x_max":0,"o":"m 1121 122 l 1021 207 b 1107 486 1076 288 1107 385 l 1107 489 b 592 989 1107 765 892 989 b 74 486 292 989 74 763 l 74 483 b 589 -17 74 207 289 -17 b 878 67 697 -17 796 14 l 985 -29 z m 883 483 b 857 350 883 435 875 390 l 697 494 l 561 342 l 719 207 b 592 181 682 190 639 181 b 297 486 419 181 297 319 l 297 489 b 589 792 297 656 417 792 b 883 486 761 792 883 653 z "},"R":{"ha":1004,"x_min":0,"x_max":0,"o":"m 957 0 l 719 347 b 928 649 843 393 928 492 l 928 651 b 561 972 928 851 790 972 l 117 972 l 117 0 l 331 0 l 331 311 l 499 311 l 707 0 z m 711 638 b 547 500 711 556 651 500 l 331 500 l 331 779 l 543 779 b 711 640 647 779 711 732 z "},"S":{"ha":889,"x_min":0,"x_max":0,"o":"m 819 288 l 819 290 b 511 582 819 460 708 531 b 301 710 343 625 301 646 l 301 713 b 426 797 301 760 344 797 b 679 701 508 797 593 761 l 790 863 b 429 986 692 942 571 986 b 89 693 231 986 89 869 l 89 690 b 411 393 89 497 215 443 b 607 269 574 351 607 324 l 607 267 b 467 175 607 210 554 175 b 176 293 356 175 264 221 l 50 142 b 463 -14 167 38 315 -14 b 819 288 672 -14 819 94 z "},"T":{"ha":900,"x_min":0,"x_max":0,"o":"m 853 775 l 853 972 l 47 972 l 47 775 l 343 775 l 343 0 l 557 0 l 557 775 z "},"U":{"ha":1050,"x_min":0,"x_max":0,"o":"m 949 424 l 949 972 l 735 972 l 735 415 b 525 182 735 261 656 182 b 315 422 394 182 315 264 l 315 972 l 101 972 l 101 417 b 522 -15 101 131 261 -15 b 949 424 783 -15 949 129 z "},"V":{"ha":1042,"x_min":0,"x_max":0,"o":"m 1008 972 l 778 972 l 524 288 l 269 972 l 33 972 l 426 -7 l 615 -7 z "},"W":{"ha":1558,"x_min":0,"x_max":0,"o":"m 1517 972 l 1293 972 l 1092 314 l 874 975 l 690 975 l 472 314 l 271 972 l 42 972 l 374 -7 l 560 -7 l 779 629 l 999 -7 l 1185 -7 z "},"X":{"ha":1017,"x_min":0,"x_max":0,"o":"m 974 0 l 635 497 l 960 972 l 717 972 l 511 657 l 307 972 l 57 972 l 382 494 l 43 0 l 286 0 l 506 333 l 724 0 z "},"Y":{"ha":994,"x_min":0,"x_max":0,"o":"m 978 972 l 735 972 l 499 582 l 267 972 l 17 972 l 390 383 l 390 0 l 604 0 l 604 388 z "},"Z":{"ha":983,"x_min":0,"x_max":0,"o":"m 897 0 l 897 188 l 363 188 l 897 810 l 897 972 l 104 972 l 104 785 l 622 785 l 88 163 l 88 0 z "},"[":{"ha":646,"x_min":0,"x_max":0,"o":"m 564 972 l 115 972 l 115 -181 l 564 -181 l 564 -15 l 318 -15 l 318 807 l 564 807 z "},"\\":{"ha":736,"x_min":0,"x_max":0,"o":"m 160 1108 l -19 1108 l 596 -178 l 775 -178 z "},"]":{"ha":646,"x_min":0,"x_max":0,"o":"m 82 972 l 82 807 l 328 807 l 328 -15 l 82 -15 l 82 -181 l 531 -181 l 531 972 z "},"^":{"ha":694,"x_min":0,"x_max":0,"o":"m 346 847 l 472 685 l 625 685 l 419 972 l 275 972 l 69 685 l 219 685 z "},"_":{"ha":833,"x_min":0,"x_max":0,"o":"m -3 -61 l -3 -222 l 836 -222 l 836 -61 z "},"‘":{"ha":397,"x_min":0,"x_max":0,"o":"m 354 892 l 336 979 b 79 719 171 976 79 903 l 79 532 l 304 532 l 304 754 l 218 754 b 354 892 211 833 258 882 z "},"a":{"ha":822,"x_min":0,"x_max":0,"o":"m 735 0 l 735 432 b 403 753 735 633 633 753 b 114 693 276 753 196 729 l 167 532 b 372 572 235 557 292 572 b 532 436 478 572 532 524 l 532 424 b 350 454 479 442 425 454 b 50 217 174 454 50 379 l 50 214 b 306 -14 50 67 165 -14 b 531 81 408 -14 479 24 l 531 0 z m 535 263 b 369 132 535 186 468 132 b 254 222 301 132 254 165 l 254 225 b 400 328 254 292 310 328 b 535 300 451 328 499 317 z "},"b":{"ha":938,"x_min":0,"x_max":0,"o":"m 876 371 l 876 374 b 538 758 876 622 711 758 b 306 638 428 758 357 707 l 306 1014 l 94 1014 l 94 0 l 306 0 l 306 97 b 538 -14 356 38 425 -14 b 876 371 714 -14 876 122 z m 665 371 b 483 165 665 246 582 165 b 303 371 385 165 303 247 l 303 374 b 483 579 303 497 385 579 b 665 374 582 579 665 497 z "},"c":{"ha":793,"x_min":0,"x_max":0,"o":"m 750 119 l 626 244 b 456 165 575 196 526 165 b 267 371 340 165 267 257 l 267 374 b 447 576 267 483 342 576 b 617 494 522 576 569 544 l 746 633 b 449 758 676 711 589 758 b 58 371 221 758 58 583 l 58 368 b 446 -17 58 156 222 -17 b 750 119 594 -17 678 40 z "},"d":{"ha":938,"x_min":0,"x_max":0,"o":"m 843 0 l 843 1014 l 632 1014 l 632 647 b 400 758 582 707 513 758 b 61 374 224 758 61 622 l 61 371 b 400 -14 61 122 226 -14 b 632 107 510 -14 581 38 l 632 0 z m 635 371 b 454 165 635 247 553 165 b 272 371 356 165 272 247 l 272 374 b 454 579 272 499 356 579 b 635 374 553 579 635 497 z "},"e":{"ha":851,"x_min":0,"x_max":0,"o":"m 789 351 l 789 354 b 426 758 789 565 675 758 b 58 371 210 758 58 583 l 58 368 b 447 -17 58 140 224 -17 b 751 122 582 -17 682 36 l 631 229 b 450 153 572 175 521 153 b 268 299 356 153 289 203 l 786 299 b 789 351 788 318 789 331 z m 583 431 l 265 431 b 426 589 282 526 339 589 b 583 431 515 589 571 525 z "},"f":{"ha":531,"x_min":0,"x_max":0,"o":"m 511 828 l 511 1003 b 361 1024 472 1015 428 1024 b 131 785 213 1024 131 949 l 131 738 l 43 738 l 43 564 l 131 564 l 131 0 l 342 0 l 342 564 l 510 564 l 510 736 l 339 736 l 339 765 b 415 846 339 821 367 846 b 511 828 451 846 481 839 z "},"g":{"ha":938,"x_min":0,"x_max":0,"o":"m 843 168 l 843 744 l 632 744 l 632 647 b 392 758 575 710 507 758 b 61 411 221 758 61 633 l 61 408 b 392 61 61 188 218 61 b 635 182 504 61 572 107 l 635 146 b 422 -57 635 13 567 -57 b 171 11 324 -57 247 -32 l 99 -147 b 428 -225 193 -197 307 -225 b 843 168 704 -225 843 -112 z m 635 408 b 453 236 635 307 556 236 b 272 408 350 236 272 306 l 272 411 b 453 583 272 513 350 583 b 635 411 556 583 635 513 z "},"h":{"ha":865,"x_min":0,"x_max":0,"o":"m 776 0 l 776 482 b 524 758 776 653 683 758 b 306 639 417 758 354 701 l 306 1014 l 94 1014 l 94 0 l 306 0 l 306 415 b 438 567 306 515 357 567 b 565 415 518 567 565 515 l 565 0 z "},"i":{"ha":419,"x_min":0,"x_max":0,"o":"m 321 826 l 321 1014 l 99 1014 l 99 826 z m 315 0 l 315 744 l 104 744 l 104 0 z "},"j":{"ha":419,"x_min":0,"x_max":0,"o":"m 321 826 l 321 1014 l 99 1014 l 99 826 z m 315 13 l 315 744 l 104 744 l 104 29 b 29 -57 104 -33 74 -57 b -15 -53 14 -57 1 -56 l -15 -218 b 76 -226 14 -224 38 -226 b 315 13 232 -226 315 -151 z "},"k":{"ha":822,"x_min":0,"x_max":0,"o":"m 815 0 l 522 451 l 806 744 l 553 744 l 306 474 l 306 1014 l 94 1014 l 94 0 l 306 0 l 306 226 l 379 304 l 574 0 z "},"l":{"ha":419,"x_min":0,"x_max":0,"o":"m 315 0 l 315 1014 l 104 1014 l 104 0 z "},"m":{"ha":1319,"x_min":0,"x_max":0,"o":"m 1231 0 l 1231 485 b 979 758 1231 664 1136 758 b 735 640 878 758 800 717 b 525 758 696 715 622 758 b 306 639 418 758 354 701 l 306 744 l 94 744 l 94 0 l 306 0 l 306 415 b 433 567 306 515 354 567 b 557 415 513 567 557 515 l 557 0 l 768 0 l 768 415 b 896 567 768 515 817 567 b 1019 415 975 567 1019 515 l 1019 0 z "},"n":{"ha":865,"x_min":0,"x_max":0,"o":"m 776 0 l 776 482 b 524 758 776 653 683 758 b 306 639 417 758 354 701 l 306 744 l 94 744 l 94 0 l 306 0 l 306 415 b 438 567 306 515 357 567 b 565 415 518 567 565 515 l 565 0 z "},"o":{"ha":922,"x_min":0,"x_max":0,"o":"m 864 371 l 864 374 b 463 758 864 588 693 758 b 58 371 231 758 58 585 l 58 368 b 460 -17 58 154 229 -17 b 864 371 692 -17 864 157 z m 656 368 b 463 165 656 258 583 165 b 267 371 346 165 267 261 l 267 374 b 460 576 267 483 339 576 b 656 371 576 576 656 481 z "},"p":{"ha":938,"x_min":0,"x_max":0,"o":"m 876 371 l 876 374 b 538 758 876 622 711 758 b 306 638 428 758 357 707 l 306 744 l 94 744 l 94 -222 l 306 -222 l 306 97 b 538 -14 356 38 425 -14 b 876 371 714 -14 876 122 z m 665 371 b 483 165 665 246 582 165 b 303 371 385 165 303 247 l 303 374 b 483 579 303 497 385 579 b 665 374 582 579 665 497 z "},"q":{"ha":938,"x_min":0,"x_max":0,"o":"m 843 -222 l 843 744 l 632 744 l 632 647 b 400 758 582 707 513 758 b 61 374 224 758 61 622 l 61 371 b 400 -14 61 122 226 -14 b 632 107 510 -14 581 38 l 632 -222 z m 635 371 b 454 165 635 247 553 165 b 272 371 356 165 272 247 l 272 374 b 454 579 272 499 356 579 b 635 374 553 579 635 497 z "},"r":{"ha":581,"x_min":0,"x_max":0,"o":"m 543 538 l 543 758 b 306 594 418 764 349 697 l 306 744 l 94 744 l 94 0 l 306 0 l 306 275 b 532 538 306 453 392 538 z "},"s":{"ha":697,"x_min":0,"x_max":0,"o":"m 640 226 l 640 229 b 415 450 640 365 519 415 b 264 539 335 478 264 497 l 264 542 b 342 593 264 571 290 593 b 543 524 396 593 469 567 l 624 669 b 346 756 543 724 440 756 b 74 519 196 756 74 671 l 74 517 b 296 293 74 372 192 324 b 450 207 378 268 450 253 l 450 204 b 361 149 450 171 422 149 b 126 238 292 149 207 179 l 36 99 b 356 -14 135 21 251 -14 b 640 226 517 -14 640 61 z "},"t":{"ha":576,"x_min":0,"x_max":0,"o":"m 513 31 l 513 200 b 408 174 482 183 447 174 b 340 246 361 174 340 197 l 340 564 l 515 564 l 515 744 l 340 744 l 340 935 l 129 935 l 129 744 l 40 744 l 40 564 l 129 564 l 129 211 b 346 -12 129 39 217 -12 b 513 31 417 -12 468 4 z "},"u":{"ha":865,"x_min":0,"x_max":0,"o":"m 771 0 l 771 744 l 560 744 l 560 329 b 428 178 560 229 508 178 b 300 329 347 178 300 229 l 300 744 l 89 744 l 89 263 b 342 -14 89 92 182 -14 b 560 106 449 -14 511 43 l 560 0 z "},"v":{"ha":833,"x_min":0,"x_max":0,"o":"m 806 744 l 586 744 l 418 246 l 251 744 l 28 744 l 321 -6 l 513 -6 z "},"w":{"ha":1196,"x_min":0,"x_max":0,"o":"m 1163 744 l 953 744 l 831 292 l 689 747 l 507 747 l 367 293 l 247 744 l 33 744 l 263 -6 l 451 -6 l 597 451 l 740 -6 l 931 -6 z "},"x":{"ha":811,"x_min":0,"x_max":0,"o":"m 779 0 l 517 382 l 768 744 l 547 744 l 407 528 l 268 744 l 42 744 l 293 378 l 32 0 l 253 0 l 403 232 l 553 0 z "},"y":{"ha":833,"x_min":0,"x_max":0,"o":"m 803 744 l 583 744 l 421 238 l 251 744 l 28 744 l 319 -3 b 246 -51 301 -40 282 -51 b 156 -22 218 -51 183 -39 l 85 -175 b 272 -226 139 -207 196 -226 b 517 -18 399 -226 460 -169 z "},"z":{"ha":782,"x_min":0,"x_max":0,"o":"m 717 0 l 717 171 l 331 171 l 717 596 l 717 744 l 82 744 l 82 574 l 454 574 l 69 149 l 69 0 z "},"{":{"ha":681,"x_min":0,"x_max":0,"o":"m 615 853 l 578 993 b 253 718 324 949 253 860 b 257 622 253 697 257 646 b 104 479 257 514 213 479 l 68 479 l 68 318 l 104 318 b 257 175 213 318 257 283 b 253 79 257 151 253 100 b 578 -196 253 -62 324 -151 l 615 -56 b 446 110 468 -14 446 25 b 450 213 446 138 450 183 b 306 399 450 314 399 368 b 450 585 399 429 450 483 b 446 688 450 614 446 660 b 615 853 446 772 468 811 z "},"|":{"ha":486,"x_min":0,"x_max":0,"o":"m 326 -178 l 326 1108 l 160 1108 l 160 -178 z "},"}":{"ha":681,"x_min":0,"x_max":0,"o":"m 613 318 l 613 479 l 576 479 b 424 622 468 479 424 514 b 428 718 424 646 428 697 b 103 993 428 860 357 949 l 65 853 b 235 688 213 811 235 772 b 231 585 235 660 231 614 b 375 399 231 483 282 429 b 231 213 282 368 231 314 b 235 110 231 183 235 138 b 65 -56 235 25 213 -14 l 103 -196 b 428 79 357 -151 428 -62 b 424 175 428 100 424 151 b 576 318 424 283 468 318 z "},"~":{"ha":708,"x_min":0,"x_max":0,"o":"m 640 517 l 528 551 b 449 483 508 507 492 483 b 240 538 399 483 326 538 b 68 346 143 538 100 463 l 181 311 b 260 379 200 356 217 379 b 468 325 310 379 382 325 b 640 517 565 325 608 400 z "},"¡":{"ha":450,"x_min":0,"x_max":0,"o":"m 113 972 l 113 750 l 338 750 l 338 972 z m 349 0 l 349 28 l 283 642 l 167 642 l 101 28 l 101 0 z "},"¢":{"ha":807,"x_min":0,"x_max":0,"o":"m 483 289 l 560 672 b 628 621 585 660 606 643 l 753 756 b 603 858 711 801 664 838 l 626 981 l 482 981 l 463 881 b 454 881 460 881 457 881 b 65 492 228 881 65 706 b 315 128 65 324 168 182 l 289 -8 l 433 -8 l 456 106 b 753 246 590 108 681 165 l 633 367 b 483 289 589 325 542 296 z m 433 699 l 358 314 b 269 494 301 350 269 417 b 433 699 269 601 336 690 z "},"£":{"ha":894,"x_min":0,"x_max":0,"o":"m 189 547 l 83 547 l 83 371 l 189 371 l 189 175 l 83 140 l 83 0 l 828 0 l 828 185 l 406 185 l 406 371 l 722 371 l 722 547 l 406 547 l 406 654 b 521 788 406 738 450 788 b 668 696 581 788 621 757 l 831 826 b 518 986 764 917 675 986 b 189 660 307 986 189 864 z "},"⁄":{"ha":667,"x_min":0,"x_max":0,"o":"m 549 1053 l -99 -136 l 88 -136 l 735 1053 z "},"¥":{"ha":953,"x_min":0,"x_max":0,"o":"m 579 364 l 835 364 l 835 514 l 633 514 l 933 972 l 694 972 l 479 613 l 265 972 l 19 972 l 317 514 l 118 514 l 118 364 l 374 364 l 374 278 l 118 278 l 118 128 l 374 128 l 374 0 l 579 0 l 579 128 l 835 128 l 835 278 l 579 278 z "},"ƒ":{"ha":744,"x_min":0,"x_max":0,"o":"m 694 788 l 694 963 b 557 979 660 974 613 979 b 294 754 390 979 321 896 l 275 651 l 151 651 l 151 478 l 244 478 l 206 251 b 108 167 194 190 167 167 b 57 171 93 167 75 168 l 57 0 b 139 -7 82 -6 104 -7 b 410 218 299 -7 381 54 l 456 478 l 646 478 l 646 651 l 486 651 l 496 707 b 600 801 507 772 539 801 b 694 788 629 801 661 796 z "},"§":{"ha":878,"x_min":0,"x_max":0,"o":"m 801 494 b 493 703 801 601 713 654 b 340 781 361 732 340 749 b 432 832 340 811 369 832 b 636 740 508 832 572 799 l 750 854 b 426 986 672 939 568 986 b 142 769 246 986 142 901 b 200 642 142 721 160 674 b 76 478 129 615 76 569 b 385 269 76 371 165 318 b 538 192 517 240 538 224 b 446 140 538 161 508 140 b 242 232 369 140 306 174 l 128 118 b 451 -14 206 33 310 -14 b 736 203 632 -14 736 71 b 678 331 736 251 718 299 b 801 494 749 357 801 403 z m 617 464 b 540 401 617 426 589 401 b 401 426 511 401 474 408 b 261 508 306 450 261 471 b 338 571 261 546 289 571 b 476 546 367 571 404 564 b 617 464 572 522 617 501 z "},"¤":{"ha":1000,"x_min":0,"x_max":0,"o":"m 172 536 b 171 485 171 519 171 501 b 172 442 171 471 171 456 l 68 442 l 68 301 l 196 301 b 607 -17 250 111 394 -17 b 947 175 767 -17 865 60 l 794 288 b 607 174 733 213 688 174 b 419 301 518 174 454 219 l 678 301 l 678 442 l 389 442 b 388 488 388 457 388 472 b 389 536 388 504 388 521 l 678 536 l 678 676 l 422 676 b 599 799 457 754 517 799 b 783 689 679 799 731 760 l 944 811 b 603 989 871 914 775 989 b 199 676 397 989 256 860 l 68 676 l 68 536 z "},"'":{"ha":397,"x_min":0,"x_max":0,"o":"m 79 529 l 189 529 l 340 965 l 340 972 l 104 972 z "},"“":{"ha":750,"x_min":0,"x_max":0,"o":"m 707 892 l 689 979 b 432 719 524 976 432 903 l 432 532 l 657 532 l 657 754 l 571 754 b 707 892 564 833 611 882 z m 354 892 l 336 979 b 79 719 171 976 79 903 l 79 532 l 304 532 l 304 754 l 218 754 b 354 892 211 833 258 882 z "},"«":{"ha":896,"x_min":0,"x_max":0,"o":"m 668 689 l 435 378 l 435 367 l 668 56 l 829 136 l 649 374 l 829 611 z m 290 689 l 57 378 l 57 367 l 290 56 l 451 136 l 271 374 l 451 611 z "},"‹":{"ha":518,"x_min":0,"x_max":0,"o":"m 290 689 l 57 378 l 57 367 l 290 56 l 451 136 l 271 374 l 451 611 z "},"›":{"ha":518,"x_min":0,"x_max":0,"o":"m 228 56 l 461 367 l 461 378 l 228 689 l 67 608 l 247 371 l 67 133 z "},"ﬁ":{"ha":950,"x_min":0,"x_max":0,"o":"m 851 826 l 851 1014 l 629 1014 l 629 826 z m 339 736 l 339 765 b 415 846 339 821 367 846 b 511 828 451 846 481 839 l 511 1003 b 361 1024 472 1015 428 1024 b 131 785 213 1024 131 949 l 131 738 l 43 738 l 43 564 l 131 564 l 131 0 l 342 0 l 342 564 l 510 564 l 510 736 z m 846 0 l 846 744 l 635 744 l 635 0 z "},"ﬂ":{"ha":950,"x_min":0,"x_max":0,"o":"m 339 736 l 339 765 b 415 846 339 821 367 846 b 511 828 451 846 481 839 l 511 1003 b 361 1024 472 1015 428 1024 b 131 785 213 1024 131 949 l 131 738 l 43 738 l 43 564 l 131 564 l 131 0 l 342 0 l 342 564 l 510 564 l 510 736 z m 846 0 l 846 1014 l 635 1014 l 635 0 z "},"–":{"ha":733,"x_min":0,"x_max":0,"o":"m 664 332 l 664 529 l 69 529 l 69 332 z "},"†":{"ha":569,"x_min":0,"x_max":0,"o":"m 329 706 l 496 692 l 496 807 l 331 793 l 349 972 l 221 972 l 239 793 l 74 807 l 74 692 l 240 706 l 226 331 l 343 331 z "},"‡":{"ha":597,"x_min":0,"x_max":0,"o":"m 510 165 l 510 281 l 344 267 l 357 486 l 344 706 l 510 692 l 510 807 l 344 793 l 363 972 l 235 972 l 253 793 l 88 807 l 88 692 l 253 706 l 240 486 l 253 267 l 88 281 l 88 165 l 253 179 l 235 0 l 363 0 l 344 179 z "},"·":{"ha":397,"x_min":0,"x_max":0,"o":"m 311 319 l 311 542 l 86 542 l 86 319 z "},"¶":{"ha":819,"x_min":0,"x_max":0,"o":"m 432 972 b 49 644 204 972 49 850 b 456 319 49 428 222 319 l 489 319 l 489 0 l 703 0 l 703 972 z "},"•":{"ha":694,"x_min":0,"x_max":0,"o":"m 554 489 b 347 696 554 603 461 696 b 140 489 233 696 140 603 b 347 282 140 375 233 282 b 554 489 461 282 554 375 z "},"‚":{"ha":397,"x_min":0,"x_max":0,"o":"m 36 -137 l 54 -225 b 311 35 219 -222 311 -149 l 311 222 l 86 222 l 86 0 l 172 0 b 36 -137 179 -79 132 -128 z "},"„":{"ha":750,"x_min":0,"x_max":0,"o":"m 389 -137 l 407 -225 b 664 35 572 -222 664 -149 l 664 222 l 439 222 l 439 0 l 525 0 b 389 -137 532 -79 485 -128 z m 36 -137 l 54 -225 b 311 35 219 -222 311 -149 l 311 222 l 86 222 l 86 0 l 172 0 b 36 -137 179 -79 132 -128 z "},"”":{"ha":750,"x_min":0,"x_max":0,"o":"m 396 613 l 414 525 b 671 785 579 528 671 601 l 671 972 l 446 972 l 446 750 l 532 750 b 396 613 539 671 492 622 z m 43 613 l 61 525 b 318 785 226 528 318 601 l 318 972 l 93 972 l 93 750 l 179 750 b 43 613 186 671 139 622 z "},"»":{"ha":896,"x_min":0,"x_max":0,"o":"m 606 56 l 839 367 l 839 378 l 606 689 l 444 608 l 625 371 l 444 133 z m 228 56 l 461 367 l 461 378 l 228 689 l 67 608 l 247 371 l 67 133 z "},"…":{"ha":1167,"x_min":0,"x_max":0,"o":"m 1081 0 l 1081 217 l 861 217 l 861 0 z m 693 0 l 693 217 l 474 217 l 474 0 z m 306 0 l 306 217 l 86 217 l 86 0 z "},"‰":{"ha":1722,"x_min":0,"x_max":0,"o":"m 535 736 b 300 983 535 874 440 983 b 63 733 158 983 63 872 b 297 486 63 596 157 486 b 535 736 439 486 535 597 z m 869 972 l 160 0 l 325 0 l 1035 972 z m 1660 239 b 1425 486 1660 376 1565 486 b 1188 236 1283 486 1188 375 b 1422 -11 1188 99 1282 -11 b 1660 239 1564 -11 1660 100 z m 1132 239 b 897 486 1132 376 1038 486 b 660 236 756 486 660 375 b 894 -11 660 99 754 -11 b 1132 239 1036 -11 1132 100 z m 389 733 b 300 613 389 668 358 613 b 208 736 244 613 208 669 b 297 857 208 801 239 857 b 389 733 353 857 389 800 z m 1514 236 b 1425 115 1514 171 1483 115 b 1333 239 1369 115 1333 172 b 1422 360 1333 304 1364 360 b 1514 236 1478 360 1514 303 z m 986 236 b 897 115 986 171 956 115 b 806 239 842 115 806 172 b 894 360 806 304 836 360 b 986 236 950 360 986 303 z "},"¿":{"ha":756,"x_min":0,"x_max":0,"o":"m 303 972 l 303 750 l 528 750 l 528 972 z m 507 410 l 514 417 l 482 642 l 340 642 l 325 557 b 51 276 174 526 51 454 b 388 -12 51 90 188 -12 b 728 138 539 -12 647 49 l 600 278 b 392 182 536 214 469 182 b 264 282 311 182 264 218 b 507 410 264 357 332 403 z "},"`":{"ha":694,"x_min":0,"x_max":0,"o":"m 492 826 l 335 1072 l 153 993 l 331 826 z "},"´":{"ha":694,"x_min":0,"x_max":0,"o":"m 364 826 l 542 993 l 360 1072 l 203 826 z "},"ˆ":{"ha":694,"x_min":0,"x_max":0,"o":"m 346 918 l 456 826 l 618 826 l 447 1044 l 247 1044 l 76 826 l 236 826 z "},"˜":{"ha":694,"x_min":0,"x_max":0,"o":"m 633 1018 l 521 1053 b 442 985 501 1008 485 985 b 233 1039 392 985 319 1039 b 61 847 136 1039 93 964 l 174 813 b 253 881 193 857 210 881 b 461 826 303 881 375 826 b 633 1018 558 826 601 901 z "},"¯":{"ha":694,"x_min":0,"x_max":0,"o":"m 597 833 l 597 979 l 97 979 l 97 833 z "},"˘":{"ha":694,"x_min":0,"x_max":0,"o":"m 608 1044 l 467 1044 b 347 961 450 994 417 961 b 228 1044 278 961 244 994 l 86 1044 b 347 824 99 904 200 824 b 608 1044 494 824 596 904 z "},"˙":{"ha":694,"x_min":0,"x_max":0,"o":"m 451 826 l 451 1014 l 243 1014 l 243 826 z "},"¨":{"ha":694,"x_min":0,"x_max":0,"o":"m 597 826 l 597 1014 l 394 1014 l 394 826 z m 300 826 l 300 1014 l 97 1014 l 97 826 z "},"˚":{"ha":694,"x_min":0,"x_max":0,"o":"m 515 986 b 347 1149 515 1075 436 1149 b 179 986 258 1149 179 1075 b 347 824 179 897 258 824 b 515 986 436 824 515 897 z m 433 986 b 347 900 433 939 394 900 b 261 986 300 900 261 939 b 347 1072 261 1033 300 1072 b 433 986 394 1072 433 1033 z "},"¸":{"ha":694,"x_min":0,"x_max":0,"o":"m 288 14 l 164 -167 l 340 -240 l 443 14 z "},"˝":{"ha":694,"x_min":0,"x_max":0,"o":"m 475 826 l 656 993 l 478 1072 l 321 826 z m 204 826 l 382 993 l 204 1072 l 50 826 z "},"˛":{"ha":694,"x_min":0,"x_max":0,"o":"m 404 14 l 260 14 b 238 -76 247 -12 238 -46 b 515 -228 238 -187 339 -242 l 515 -135 b 396 -40 428 -129 396 -97 b 404 14 396 -24 399 -6 z "},"ˇ":{"ha":694,"x_min":0,"x_max":0,"o":"m 349 953 l 239 1044 l 76 1044 l 247 826 l 447 826 l 618 1044 l 458 1044 z "},"—":{"ha":1247,"x_min":0,"x_max":0,"o":"m 1178 332 l 1178 529 l 69 529 l 69 332 z "},"Æ":{"ha":1451,"x_min":0,"x_max":0,"o":"m 1378 0 l 1378 190 l 885 190 l 885 394 l 1308 394 l 1308 585 l 885 585 l 885 782 l 1371 782 l 1371 972 l 536 972 l 13 0 l 231 0 l 346 218 l 672 218 l 672 0 z m 672 407 l 446 407 l 647 788 l 672 788 z "},"ª":{"ha":542,"x_min":0,"x_max":0,"o":"m 449 563 l 449 800 b 267 976 449 911 393 976 b 107 943 196 976 153 964 l 136 856 b 249 878 174 869 206 878 b 338 803 307 878 338 850 l 338 796 b 238 813 308 806 278 813 b 72 681 140 813 72 771 b 213 554 72 599 135 554 b 336 607 269 554 308 575 l 336 563 z m 454 385 l 454 476 l 68 476 l 68 385 z m 339 707 b 247 635 339 665 301 635 b 185 686 210 635 185 653 b 264 743 185 724 215 743 b 339 728 293 743 318 736 z "},"Ł":{"ha":901,"x_min":0,"x_max":0,"o":"m 857 0 l 857 194 l 369 194 l 369 428 l 636 507 l 636 706 l 369 626 l 369 972 l 158 972 l 158 563 l 54 532 l 54 333 l 158 364 l 158 0 z "},"Ø":{"ha":1181,"x_min":0,"x_max":0,"o":"m 1107 488 b 982 821 1107 617 1061 733 l 1118 979 l 914 979 l 860 919 b 592 989 783 964 692 989 b 74 485 292 989 74 763 b 199 151 74 356 119 239 l 63 -7 l 267 -7 l 321 53 b 589 -17 397 8 489 -17 b 1107 488 889 -17 1107 210 z m 726 763 l 342 317 b 293 488 310 367 293 425 b 589 796 293 653 414 796 b 726 763 640 796 686 783 z m 888 485 b 592 176 888 319 767 176 b 454 210 540 176 494 189 l 839 656 b 888 485 871 606 888 547 z "},"Œ":{"ha":1493,"x_min":0,"x_max":0,"o":"m 1419 0 l 1419 190 l 926 190 l 926 394 l 1350 394 l 1350 585 l 926 585 l 926 782 l 1413 782 l 1413 972 l 590 972 b 74 485 285 972 74 760 b 590 0 74 210 285 0 z m 714 193 l 590 193 b 297 488 415 193 297 314 b 590 779 297 661 415 779 l 714 779 z "},"º":{"ha":542,"x_min":0,"x_max":0,"o":"m 485 767 b 272 979 485 886 394 979 b 57 765 150 979 57 885 b 269 553 57 646 147 553 b 485 767 392 553 485 647 z m 471 385 l 471 476 l 71 476 l 71 385 z m 371 765 b 272 653 371 704 333 653 b 171 767 211 653 171 706 b 269 879 171 828 208 879 b 371 765 331 879 371 826 z "},"æ":{"ha":1321,"x_min":0,"x_max":0,"o":"m 633 96 b 917 -17 703 25 803 -17 b 1221 122 1051 -17 1151 36 l 1100 229 b 919 153 1042 175 990 153 b 738 299 825 153 760 203 l 1256 299 b 1258 353 1257 318 1258 333 b 901 758 1258 565 1144 758 b 656 658 800 758 717 721 b 403 753 606 719 525 753 b 114 693 276 753 196 729 l 167 532 b 372 572 235 557 292 572 b 532 436 478 572 532 524 l 532 424 b 350 454 479 442 425 454 b 50 218 174 454 50 379 b 331 -14 50 71 165 -14 b 633 96 449 -14 549 33 z m 735 431 b 896 589 751 526 808 589 b 1053 431 985 589 1040 525 z m 533 301 b 560 206 538 267 547 235 b 369 135 497 157 432 135 b 254 226 301 135 254 168 b 400 328 254 294 310 328 b 533 301 450 328 497 317 z "},"ı":{"ha":419,"x_min":0,"x_max":0,"o":"m 315 0 l 315 744 l 104 744 l 104 0 z "},"ł":{"ha":503,"x_min":0,"x_max":0,"o":"m 356 450 l 461 482 l 461 681 l 356 649 l 356 1014 l 147 1014 l 147 588 l 42 556 l 42 357 l 147 389 l 147 0 l 356 0 z "},"ø":{"ha":922,"x_min":0,"x_max":0,"o":"m 864 372 b 772 622 864 468 831 554 l 885 751 l 700 751 l 661 710 b 463 758 604 740 536 758 b 58 369 231 758 58 585 b 149 121 58 274 92 188 l 38 -7 l 222 -7 l 260 32 b 460 -17 318 1 386 -17 b 864 372 692 -17 864 157 z m 539 565 l 283 274 b 261 372 269 303 261 338 b 460 582 261 488 339 582 b 539 565 488 582 515 576 z m 661 369 b 463 160 661 254 583 160 b 385 175 435 160 408 165 l 639 468 b 661 369 653 439 661 406 z "},"œ":{"ha":1435,"x_min":0,"x_max":0,"o":"m 739 115 b 1031 -17 804 32 906 -17 b 1335 122 1165 -17 1265 36 l 1214 229 b 1033 153 1156 175 1104 153 b 851 299 939 153 874 203 l 1369 299 b 1372 353 1371 318 1372 333 b 1015 758 1372 565 1258 758 b 743 628 899 758 804 707 b 456 758 675 708 575 758 b 58 369 235 758 58 585 b 447 -17 58 154 235 -17 b 739 115 567 -17 671 35 z m 849 431 b 1010 589 865 526 922 589 b 1167 431 1099 589 1154 525 z m 642 369 b 456 165 642 258 572 165 b 267 372 343 165 267 260 b 453 576 267 483 336 576 b 642 369 565 576 642 482 z "},"ß":{"ha":861,"x_min":0,"x_max":0,"o":"m 746 753 b 436 1024 746 906 635 1024 b 94 699 228 1024 94 904 l 94 0 l 304 0 l 304 707 b 426 846 304 792 354 846 b 538 733 494 846 538 804 b 415 560 538 656 483 603 l 415 421 b 593 285 517 407 593 363 b 415 156 593 204 529 161 l 415 -3 b 801 278 650 -12 801 92 b 619 525 801 413 715 483 b 746 753 689 572 746 632 z "},"Ð":{"ha":1128,"x_min":0,"x_max":0,"o":"m 158 394 l 158 0 l 538 0 b 1054 488 843 0 1054 213 b 538 972 1054 763 843 972 l 158 972 l 158 583 l 54 583 l 54 394 z m 369 583 l 369 779 l 538 779 b 831 485 713 779 831 658 b 538 193 831 311 713 193 l 369 193 l 369 394 l 581 394 l 581 583 z "},"ð":{"ha":900,"x_min":0,"x_max":0,"o":"m 426 792 l 547 631 b 376 675 488 663 440 675 b 58 349 190 675 58 542 b 443 -17 58 144 221 -17 b 839 365 693 -17 839 158 b 717 704 839 485 804 581 l 604 864 l 746 921 l 669 1025 l 531 968 l 499 1014 l 261 1014 l 350 894 l 190 831 l 268 726 z m 633 344 b 450 161 633 242 564 161 b 264 344 339 161 264 243 b 449 525 264 447 336 525 b 633 344 561 525 633 444 z "},"Š":{"ha":889,"x_min":0,"x_max":0,"o":"m 819 288 l 819 290 b 511 582 819 460 708 531 b 301 710 343 625 301 646 l 301 713 b 426 797 301 760 344 797 b 679 701 508 797 593 761 l 790 863 b 429 986 692 942 571 986 b 89 693 231 986 89 869 l 89 690 b 411 393 89 497 215 443 b 607 269 574 351 607 324 l 607 267 b 467 175 607 210 554 175 b 176 293 356 175 264 221 l 50 142 b 463 -14 167 38 315 -14 b 819 288 672 -14 819 94 z m 442 1175 l 332 1267 l 169 1267 l 340 1049 l 540 1049 l 711 1267 l 551 1267 z "},"š":{"ha":697,"x_min":0,"x_max":0,"o":"m 640 226 l 640 229 b 415 450 640 365 519 415 b 264 539 335 478 264 497 l 264 542 b 342 593 264 571 290 593 b 543 524 396 593 469 567 l 624 669 b 346 756 543 724 440 756 b 74 519 196 756 74 671 l 74 517 b 296 293 74 372 192 324 b 450 207 378 268 450 253 l 450 204 b 361 149 450 171 422 149 b 126 238 292 149 207 179 l 36 99 b 356 -14 135 21 251 -14 b 640 226 517 -14 640 61 z m 356 953 l 246 1044 l 83 1044 l 254 826 l 454 826 l 625 1044 l 465 1044 z "},"Ý":{"ha":994,"x_min":0,"x_max":0,"o":"m 978 972 l 735 972 l 499 582 l 267 972 l 17 972 l 390 383 l 390 0 l 604 0 l 604 388 z m 576 1042 l 754 1208 l 572 1288 l 415 1042 z "},"ý":{"ha":833,"x_min":0,"x_max":0,"o":"m 803 744 l 583 744 l 421 238 l 251 744 l 28 744 l 319 -3 b 246 -51 301 -40 282 -51 b 156 -22 218 -51 183 -39 l 85 -175 b 272 -226 139 -207 196 -226 b 517 -18 399 -226 460 -169 z m 479 826 l 657 993 l 475 1072 l 318 826 z "},"Þ":{"ha":935,"x_min":0,"x_max":0,"o":"m 886 493 b 514 831 886 694 746 831 l 331 831 l 331 972 l 117 972 l 117 0 l 331 0 l 331 150 l 493 150 b 886 493 711 150 886 267 z m 669 489 b 500 340 669 403 607 340 l 331 340 l 331 638 l 496 638 b 669 489 603 638 669 586 z "},"þ":{"ha":938,"x_min":0,"x_max":0,"o":"m 876 372 b 538 758 876 622 711 758 b 306 638 428 758 357 707 l 306 1014 l 94 1014 l 94 -222 l 306 -222 l 306 97 b 538 -14 356 38 425 -14 b 876 372 714 -14 876 122 z m 665 372 b 483 165 665 246 582 165 b 303 372 385 165 303 246 b 483 579 303 499 385 579 b 665 372 582 579 665 499 z "},"Ž":{"ha":983,"x_min":0,"x_max":0,"o":"m 897 0 l 897 188 l 363 188 l 897 810 l 897 972 l 104 972 l 104 785 l 622 785 l 88 163 l 88 0 z m 497 1175 l 388 1267 l 225 1267 l 396 1049 l 596 1049 l 767 1267 l 607 1267 z "},"ž":{"ha":782,"x_min":0,"x_max":0,"o":"m 717 0 l 717 171 l 331 171 l 717 596 l 717 744 l 82 744 l 82 574 l 454 574 l 69 149 l 69 0 z m 403 953 l 293 1044 l 131 1044 l 301 826 l 501 826 l 672 1044 l 513 1044 z "},"Ä":{"ha":1097,"x_min":0,"x_max":0,"o":"m 1064 0 l 647 979 l 450 979 l 33 0 l 251 0 l 340 218 l 751 218 l 840 0 z m 675 407 l 417 407 l 546 722 z m 799 1049 l 799 1236 l 596 1236 l 596 1049 z m 501 1049 l 501 1236 l 299 1236 l 299 1049 z "},"Å":{"ha":1097,"x_min":0,"x_max":0,"o":"m 1064 0 l 658 954 b 717 1076 693 985 717 1028 b 549 1239 717 1165 638 1239 b 381 1076 460 1239 381 1165 b 439 954 381 1028 404 985 l 33 0 l 251 0 l 340 218 l 751 218 l 840 0 z m 635 1076 b 549 990 635 1029 596 990 b 463 1076 501 990 463 1029 b 549 1163 463 1124 501 1163 b 635 1076 596 1163 635 1124 z m 675 407 l 417 407 l 546 722 z "},"Ç":{"ha":1025,"x_min":0,"x_max":0,"o":"m 453 -3 l 342 -167 l 518 -240 l 608 -15 b 971 157 775 -7 878 57 l 835 294 b 579 181 758 225 690 181 b 297 488 413 181 297 319 b 579 792 297 656 415 792 b 828 682 676 792 753 750 l 964 839 b 581 989 874 928 764 989 b 74 485 282 989 74 763 b 453 -3 74 244 229 49 z "},"É":{"ha":931,"x_min":0,"x_max":0,"o":"m 857 0 l 857 190 l 329 190 l 329 394 l 788 394 l 788 585 l 329 585 l 329 782 l 850 782 l 850 972 l 117 972 l 117 0 z m 528 1049 l 706 1215 l 524 1294 l 367 1049 z "},"Ñ":{"ha":1097,"x_min":0,"x_max":0,"o":"m 981 0 l 981 972 l 769 972 l 769 374 l 314 972 l 117 972 l 117 0 l 328 0 l 328 618 l 799 0 z m 835 1240 l 722 1275 b 643 1207 703 1231 686 1207 b 435 1261 593 1207 521 1261 b 263 1069 338 1261 294 1186 l 375 1035 b 454 1103 394 1079 411 1103 b 663 1049 504 1103 576 1049 b 835 1240 760 1049 803 1124 z "},"Ö":{"ha":1181,"x_min":0,"x_max":0,"o":"m 1107 486 l 1107 489 b 592 989 1107 765 892 989 b 74 486 292 989 74 763 l 74 483 b 589 -17 74 207 289 -17 b 1107 486 889 -17 1107 210 z m 883 483 b 592 181 883 317 764 181 b 297 486 419 181 297 319 l 297 489 b 589 792 297 656 417 792 b 883 486 761 792 883 653 z m 840 1049 l 840 1236 l 638 1236 l 638 1049 z m 543 1049 l 543 1236 l 340 1236 l 340 1049 z "},"Ü":{"ha":1050,"x_min":0,"x_max":0,"o":"m 949 424 l 949 972 l 735 972 l 735 415 b 525 182 735 261 656 182 b 315 422 394 182 315 264 l 315 972 l 101 972 l 101 417 b 522 -15 101 131 261 -15 b 949 424 783 -15 949 129 z m 775 1049 l 775 1236 l 572 1236 l 572 1049 z m 478 1049 l 478 1236 l 275 1236 l 275 1049 z "},"á":{"ha":822,"x_min":0,"x_max":0,"o":"m 735 0 l 735 432 b 403 753 735 633 633 753 b 114 693 276 753 196 729 l 167 532 b 372 572 235 557 292 572 b 532 436 478 572 532 524 l 532 424 b 350 454 479 442 425 454 b 50 217 174 454 50 379 l 50 214 b 306 -14 50 67 165 -14 b 531 81 408 -14 479 24 l 531 0 z m 535 263 b 369 132 535 186 468 132 b 254 222 301 132 254 165 l 254 225 b 400 328 254 292 310 328 b 535 300 451 328 499 317 z m 476 826 l 654 993 l 472 1072 l 315 826 z "},"à":{"ha":822,"x_min":0,"x_max":0,"o":"m 735 0 l 735 432 b 403 753 735 633 633 753 b 114 693 276 753 196 729 l 167 532 b 372 572 235 557 292 572 b 532 436 478 572 532 524 l 532 424 b 350 454 479 442 425 454 b 50 217 174 454 50 379 l 50 214 b 306 -14 50 67 165 -14 b 531 81 408 -14 479 24 l 531 0 z m 535 263 b 369 132 535 186 468 132 b 254 222 301 132 254 165 l 254 225 b 400 328 254 292 310 328 b 535 300 451 328 499 317 z m 514 826 l 357 1072 l 175 993 l 353 826 z "},"â":{"ha":822,"x_min":0,"x_max":0,"o":"m 735 0 l 735 432 b 403 753 735 633 633 753 b 114 693 276 753 196 729 l 167 532 b 372 572 235 557 292 572 b 532 436 478 572 532 524 l 532 424 b 350 454 479 442 425 454 b 50 217 174 454 50 379 l 50 214 b 306 -14 50 67 165 -14 b 531 81 408 -14 479 24 l 531 0 z m 535 263 b 369 132 535 186 468 132 b 254 222 301 132 254 165 l 254 225 b 400 328 254 292 310 328 b 535 300 451 328 499 317 z m 407 918 l 517 826 l 679 826 l 508 1044 l 308 1044 l 138 826 l 297 826 z "},"ä":{"ha":822,"x_min":0,"x_max":0,"o":"m 735 0 l 735 432 b 403 753 735 633 633 753 b 114 693 276 753 196 729 l 167 532 b 372 572 235 557 292 572 b 532 436 478 572 532 524 l 532 424 b 350 454 479 442 425 454 b 50 217 174 454 50 379 l 50 214 b 306 -14 50 67 165 -14 b 531 81 408 -14 479 24 l 531 0 z m 535 263 b 369 132 535 186 468 132 b 254 222 301 132 254 165 l 254 225 b 400 328 254 292 310 328 b 535 300 451 328 499 317 z m 658 826 l 658 1014 l 456 1014 l 456 826 z m 361 826 l 361 1014 l 158 1014 l 158 826 z "},"ã":{"ha":822,"x_min":0,"x_max":0,"o":"m 735 0 l 735 432 b 403 753 735 633 633 753 b 114 693 276 753 196 729 l 167 532 b 372 572 235 557 292 572 b 532 436 478 572 532 524 l 532 424 b 350 454 479 442 425 454 b 50 217 174 454 50 379 l 50 214 b 306 -14 50 67 165 -14 b 531 81 408 -14 479 24 l 531 0 z m 535 263 b 369 132 535 186 468 132 b 254 222 301 132 254 165 l 254 225 b 400 328 254 292 310 328 b 535 300 451 328 499 317 z m 697 1018 l 585 1053 b 506 985 565 1008 549 985 b 297 1039 456 985 383 1039 b 125 847 200 1039 157 964 l 238 813 b 317 881 257 857 274 881 b 525 826 367 881 439 826 b 697 1018 622 826 665 901 z "},"å":{"ha":822,"x_min":0,"x_max":0,"o":"m 735 0 l 735 432 b 403 753 735 633 633 753 b 114 693 276 753 196 729 l 167 532 b 372 572 235 557 292 572 b 532 436 478 572 532 524 l 532 424 b 350 454 479 442 425 454 b 50 217 174 454 50 379 l 50 214 b 306 -14 50 67 165 -14 b 531 81 408 -14 479 24 l 531 0 z m 535 263 b 369 132 535 186 468 132 b 254 222 301 132 254 165 l 254 225 b 400 328 254 292 310 328 b 535 300 451 328 499 317 z m 576 986 b 408 1149 576 1075 497 1149 b 240 986 319 1149 240 1075 b 408 824 240 897 319 824 b 576 986 497 824 576 897 z m 494 986 b 408 900 494 939 456 900 b 322 986 361 900 322 939 b 408 1072 322 1033 361 1072 b 494 986 456 1072 494 1033 z "},"ç":{"ha":793,"x_min":0,"x_max":0,"o":"m 328 0 l 214 -167 l 390 -240 l 481 -15 b 750 119 608 -7 683 47 l 626 244 b 456 165 575 196 526 165 b 267 372 340 165 267 257 b 447 576 267 483 342 576 b 617 494 522 576 569 544 l 746 633 b 449 758 676 711 589 758 b 58 369 221 758 58 583 b 328 0 58 194 167 49 z "},"é":{"ha":851,"x_min":0,"x_max":0,"o":"m 789 351 l 789 354 b 426 758 789 565 675 758 b 58 371 210 758 58 583 l 58 368 b 447 -17 58 140 224 -17 b 751 122 582 -17 682 36 l 631 229 b 450 153 572 175 521 153 b 268 299 356 153 289 203 l 786 299 b 789 351 788 318 789 331 z m 583 431 l 265 431 b 426 589 282 526 339 589 b 583 431 515 589 571 525 z m 503 826 l 681 993 l 499 1072 l 342 826 z "},"è":{"ha":851,"x_min":0,"x_max":0,"o":"m 789 351 l 789 354 b 426 758 789 565 675 758 b 58 371 210 758 58 583 l 58 368 b 447 -17 58 140 224 -17 b 751 122 582 -17 682 36 l 631 229 b 450 153 572 175 521 153 b 268 299 356 153 289 203 l 786 299 b 789 351 788 318 789 331 z m 583 431 l 265 431 b 426 589 282 526 339 589 b 583 431 515 589 571 525 z m 508 826 l 351 1072 l 169 993 l 347 826 z "},"ê":{"ha":851,"x_min":0,"x_max":0,"o":"m 789 351 l 789 354 b 426 758 789 565 675 758 b 58 371 210 758 58 583 l 58 368 b 447 -17 58 140 224 -17 b 751 122 582 -17 682 36 l 631 229 b 450 153 572 175 521 153 b 268 299 356 153 289 203 l 786 299 b 789 351 788 318 789 331 z m 583 431 l 265 431 b 426 589 282 526 339 589 b 583 431 515 589 571 525 z m 424 918 l 533 826 l 696 826 l 525 1044 l 325 1044 l 154 826 l 314 826 z "},"ë":{"ha":851,"x_min":0,"x_max":0,"o":"m 789 351 l 789 354 b 426 758 789 565 675 758 b 58 371 210 758 58 583 l 58 368 b 447 -17 58 140 224 -17 b 751 122 582 -17 682 36 l 631 229 b 450 153 572 175 521 153 b 268 299 356 153 289 203 l 786 299 b 789 351 788 318 789 331 z m 583 431 l 265 431 b 426 589 282 526 339 589 b 583 431 515 589 571 525 z m 675 826 l 675 1014 l 472 1014 l 472 826 z m 378 826 l 378 1014 l 175 1014 l 175 826 z "},"í":{"ha":419,"x_min":0,"x_max":0,"o":"m 315 0 l 315 744 l 104 744 l 104 0 z m 279 826 l 457 993 l 275 1072 l 118 826 z "},"ì":{"ha":419,"x_min":0,"x_max":0,"o":"m 315 0 l 315 744 l 104 744 l 104 0 z m 301 826 l 144 1072 l -37 993 l 140 826 z "},"î":{"ha":419,"x_min":0,"x_max":0,"o":"m 315 0 l 315 744 l 104 744 l 104 0 z m 208 918 l 318 826 l 481 826 l 310 1044 l 110 1044 l -61 826 l 99 826 z "},"ï":{"ha":419,"x_min":0,"x_max":0,"o":"m 315 0 l 315 744 l 104 744 l 104 0 z m 460 826 l 460 1014 l 257 1014 l 257 826 z m 163 826 l 163 1014 l -40 1014 l -40 826 z "},"ñ":{"ha":865,"x_min":0,"x_max":0,"o":"m 776 0 l 776 482 b 524 758 776 653 683 758 b 306 639 417 758 354 701 l 306 744 l 94 744 l 94 0 l 306 0 l 306 415 b 438 567 306 515 357 567 b 565 415 518 567 565 515 l 565 0 z m 725 1018 l 613 1053 b 533 985 593 1008 576 985 b 325 1039 483 985 411 1039 b 153 847 228 1039 185 964 l 265 813 b 344 881 285 857 301 881 b 553 826 394 881 467 826 b 725 1018 650 826 693 901 z "},"ó":{"ha":922,"x_min":0,"x_max":0,"o":"m 864 371 l 864 374 b 463 758 864 588 693 758 b 58 371 231 758 58 585 l 58 368 b 460 -17 58 154 229 -17 b 864 371 692 -17 864 157 z m 656 368 b 463 165 656 258 583 165 b 267 371 346 165 267 261 l 267 374 b 460 576 267 483 339 576 b 656 371 576 576 656 481 z m 542 826 l 719 993 l 538 1072 l 381 826 z "},"ò":{"ha":922,"x_min":0,"x_max":0,"o":"m 864 371 l 864 374 b 463 758 864 588 693 758 b 58 371 231 758 58 585 l 58 368 b 460 -17 58 154 229 -17 b 864 371 692 -17 864 157 z m 656 368 b 463 165 656 258 583 165 b 267 371 346 165 267 261 l 267 374 b 460 576 267 483 339 576 b 656 371 576 576 656 481 z m 542 826 l 385 1072 l 203 993 l 381 826 z "},"ô":{"ha":922,"x_min":0,"x_max":0,"o":"m 864 371 l 864 374 b 463 758 864 588 693 758 b 58 371 231 758 58 585 l 58 368 b 460 -17 58 154 229 -17 b 864 371 692 -17 864 157 z m 656 368 b 463 165 656 258 583 165 b 267 371 346 165 267 261 l 267 374 b 460 576 267 483 339 576 b 656 371 576 576 656 481 z m 460 918 l 569 826 l 732 826 l 561 1044 l 361 1044 l 190 826 l 350 826 z "},"ö":{"ha":922,"x_min":0,"x_max":0,"o":"m 864 371 l 864 374 b 463 758 864 588 693 758 b 58 371 231 758 58 585 l 58 368 b 460 -17 58 154 229 -17 b 864 371 692 -17 864 157 z m 656 368 b 463 165 656 258 583 165 b 267 371 346 165 267 261 l 267 374 b 460 576 267 483 339 576 b 656 371 576 576 656 481 z m 711 826 l 711 1014 l 508 1014 l 508 826 z m 414 826 l 414 1014 l 211 1014 l 211 826 z "},"õ":{"ha":922,"x_min":0,"x_max":0,"o":"m 864 371 l 864 374 b 463 758 864 588 693 758 b 58 371 231 758 58 585 l 58 368 b 460 -17 58 154 229 -17 b 864 371 692 -17 864 157 z m 656 368 b 463 165 656 258 583 165 b 267 371 346 165 267 261 l 267 374 b 460 576 267 483 339 576 b 656 371 576 576 656 481 z m 747 1018 l 635 1053 b 556 985 615 1008 599 985 b 347 1039 506 985 433 1039 b 175 847 250 1039 207 964 l 288 813 b 367 881 307 857 324 881 b 575 826 417 881 489 826 b 747 1018 672 826 715 901 z "},"ú":{"ha":865,"x_min":0,"x_max":0,"o":"m 771 0 l 771 744 l 560 744 l 560 329 b 428 178 560 229 508 178 b 300 329 347 178 300 229 l 300 744 l 89 744 l 89 263 b 342 -14 89 92 182 -14 b 560 106 449 -14 511 43 l 560 0 z m 490 826 l 668 993 l 486 1072 l 329 826 z "},"ù":{"ha":865,"x_min":0,"x_max":0,"o":"m 771 0 l 771 744 l 560 744 l 560 329 b 428 178 560 229 508 178 b 300 329 347 178 300 229 l 300 744 l 89 744 l 89 263 b 342 -14 89 92 182 -14 b 560 106 449 -14 511 43 l 560 0 z m 535 826 l 378 1072 l 196 993 l 374 826 z "},"û":{"ha":865,"x_min":0,"x_max":0,"o":"m 771 0 l 771 744 l 560 744 l 560 329 b 428 178 560 229 508 178 b 300 329 347 178 300 229 l 300 744 l 89 744 l 89 263 b 342 -14 89 92 182 -14 b 560 106 449 -14 511 43 l 560 0 z m 431 918 l 540 826 l 703 826 l 532 1044 l 332 1044 l 161 826 l 321 826 z "},"ü":{"ha":865,"x_min":0,"x_max":0,"o":"m 771 0 l 771 744 l 560 744 l 560 329 b 428 178 560 229 508 178 b 300 329 347 178 300 229 l 300 744 l 89 744 l 89 263 b 342 -14 89 92 182 -14 b 560 106 449 -14 511 43 l 560 0 z m 682 826 l 682 1014 l 479 1014 l 479 826 z m 385 826 l 385 1014 l 182 1014 l 182 826 z "},"°":{"ha":667,"x_min":0,"x_max":0,"o":"m 574 746 b 333 981 574 872 460 981 b 93 746 207 981 93 872 b 333 511 93 619 207 511 b 574 746 460 511 574 619 z m 461 746 b 333 615 461 676 407 615 b 206 746 260 615 206 676 b 333 876 206 815 260 876 b 461 746 407 876 461 815 z "},"®":{"ha":1153,"x_min":0,"x_max":0,"o":"m 1079 488 b 578 989 1079 763 860 989 b 74 485 296 989 74 760 b 575 -17 74 210 293 -17 b 1079 488 857 -17 1079 213 z m 1021 488 b 575 39 1021 240 829 39 b 132 485 322 39 132 238 b 578 933 132 732 324 933 b 1021 488 831 933 1021 735 z m 817 592 b 607 768 817 703 735 768 l 369 768 l 369 233 l 488 233 l 488 406 l 581 406 l 694 233 l 832 233 l 701 425 b 817 592 769 450 817 504 z m 697 585 b 606 507 697 539 665 507 l 488 507 l 488 664 l 603 664 b 697 585 661 664 697 638 z "},"©":{"ha":1153,"x_min":0,"x_max":0,"o":"m 1079 488 b 578 989 1079 763 860 989 b 74 485 296 989 74 760 b 575 -17 74 210 293 -17 b 1079 488 857 -17 1079 213 z m 1021 488 b 575 39 1021 240 829 39 b 132 485 322 39 132 238 b 578 933 132 732 324 933 b 1021 488 831 933 1021 735 z m 801 313 l 724 390 b 586 328 682 353 646 328 b 433 493 496 328 433 403 b 586 658 433 585 497 658 b 721 599 638 658 681 635 l 797 688 b 586 769 747 736 688 769 b 308 492 422 769 308 644 b 582 217 308 338 425 217 b 801 313 685 217 746 253 z "},"™":{"ha":958,"x_min":0,"x_max":0,"o":"m 815 833 l 815 544 l 907 544 l 907 972 l 807 972 l 694 792 l 582 972 l 479 972 l 479 544 l 571 544 l 571 833 l 689 646 l 697 646 z m 261 886 l 389 886 l 389 972 l 36 972 l 36 886 l 164 886 l 164 544 l 261 544 z "},"±":{"ha":853,"x_min":0,"x_max":0,"o":"m 792 288 b 638 500 792 403 726 461 b 765 726 713 542 765 608 b 418 989 765 881 629 989 b 69 810 251 989 157 919 l 217 685 b 415 797 276 751 333 797 b 556 693 504 797 556 754 b 404 579 556 626 503 579 l 292 579 l 292 401 l 399 401 b 582 290 514 401 582 364 b 439 175 582 219 531 175 b 194 288 335 175 260 219 l 51 149 b 436 -17 144 47 276 -17 b 792 288 664 -17 792 113 z "},"µ":{"ha":1181,"x_min":0,"x_max":0,"o":"m 1107 488 b 592 989 1107 765 892 989 b 74 485 292 989 74 763 b 589 -17 74 207 289 -17 b 736 3 640 -17 690 -10 l 882 -140 l 1196 -140 l 1196 -126 l 949 124 b 1107 488 1047 215 1107 346 z m 883 485 b 592 181 883 317 764 181 b 297 488 419 181 297 319 b 589 792 297 656 417 792 b 883 485 761 792 883 653 z "},"π":{"ha":1153,"x_min":0,"x_max":0,"o":"m 1079 488 b 578 989 1079 763 860 989 b 74 485 296 989 74 760 b 575 -17 74 210 293 -17 b 1079 488 857 -17 1079 213 z m 1021 488 b 575 39 1021 240 829 39 b 132 485 322 39 132 238 b 578 933 132 732 324 933 b 1021 488 831 933 1021 735 z m 817 576 b 611 763 817 688 739 763 l 392 763 l 392 228 l 511 228 l 511 389 l 600 389 b 817 576 719 389 817 453 z m 696 575 b 603 493 696 528 661 493 l 511 493 l 511 657 l 600 657 b 696 575 658 657 696 628 z "},"Ω":{"ha":1061,"x_min":0,"x_max":0,"o":"m 869 736 l 869 765 b 946 846 869 821 897 846 b 1042 828 982 846 1011 839 l 1042 1003 b 892 1024 1003 1015 958 1024 b 661 785 743 1024 661 949 l 661 738 l 574 738 l 574 564 l 661 564 l 661 0 l 872 0 l 872 564 l 1040 564 l 1040 736 z m 339 736 l 339 765 b 415 846 339 821 367 846 b 511 828 451 846 481 839 l 511 1003 b 361 1024 472 1015 428 1024 b 131 785 213 1024 131 949 l 131 738 l 43 738 l 43 564 l 131 564 l 131 0 l 342 0 l 342 564 l 510 564 l 510 736 z "},"√":{"ha":1481,"x_min":0,"x_max":0,"o":"m 869 736 l 869 765 b 946 846 869 821 897 846 b 1042 828 982 846 1011 839 l 1042 1003 b 892 1024 1003 1015 958 1024 b 661 785 743 1024 661 949 l 661 738 l 574 738 l 574 564 l 661 564 l 661 0 l 872 0 l 872 564 l 1040 564 l 1040 736 z m 339 736 l 339 765 b 415 846 339 821 367 846 b 511 828 451 846 481 839 l 511 1003 b 361 1024 472 1015 428 1024 b 131 785 213 1024 131 949 l 131 738 l 43 738 l 43 564 l 131 564 l 131 0 l 342 0 l 342 564 l 510 564 l 510 736 z m 1376 0 l 1376 1014 l 1165 1014 l 1165 0 z "},"≈":{"ha":1481,"x_min":0,"x_max":0,"o":"m 1382 826 l 1382 1014 l 1160 1014 l 1160 826 z m 869 736 l 869 765 b 946 846 869 821 897 846 b 1042 828 982 846 1011 839 l 1042 1003 b 892 1024 1003 1015 958 1024 b 661 785 743 1024 661 949 l 661 738 l 574 738 l 574 564 l 661 564 l 661 0 l 872 0 l 872 564 l 1040 564 l 1040 736 z m 339 736 l 339 765 b 415 846 339 821 367 846 b 511 828 451 846 481 839 l 511 1003 b 361 1024 472 1015 428 1024 b 131 785 213 1024 131 949 l 131 738 l 43 738 l 43 564 l 131 564 l 131 0 l 342 0 l 342 564 l 510 564 l 510 736 z m 1376 0 l 1376 744 l 1165 744 l 1165 0 z "}," ":{"ha":417,"x_min":0,"x_max":0,"o":""},"À":{"ha":1097,"x_min":0,"x_max":0,"o":"m 1064 0 l 647 979 l 450 979 l 33 0 l 251 0 l 340 218 l 751 218 l 840 0 z m 675 407 l 417 407 l 546 722 z m 638 1049 l 481 1294 l 299 1215 l 476 1049 z "},"Ã":{"ha":1097,"x_min":0,"x_max":0,"o":"m 1064 0 l 647 979 l 450 979 l 33 0 l 251 0 l 340 218 l 751 218 l 840 0 z m 675 407 l 417 407 l 546 722 z m 835 1240 l 722 1275 b 643 1207 703 1231 686 1207 b 435 1261 593 1207 521 1261 b 263 1069 338 1261 294 1186 l 375 1035 b 454 1103 394 1079 411 1103 b 663 1049 504 1103 576 1049 b 835 1240 760 1049 803 1124 z "},"Õ":{"ha":1181,"x_min":0,"x_max":0,"o":"m 1107 486 l 1107 489 b 592 989 1107 765 892 989 b 74 486 292 989 74 763 l 74 483 b 589 -17 74 207 289 -17 b 1107 486 889 -17 1107 210 z m 883 483 b 592 181 883 317 764 181 b 297 486 419 181 297 319 l 297 489 b 589 792 297 656 417 792 b 883 486 761 792 883 653 z m 876 1240 l 764 1275 b 685 1207 744 1231 728 1207 b 476 1261 635 1207 563 1261 b 304 1069 379 1261 336 1186 l 417 1035 b 496 1103 436 1079 453 1103 b 704 1049 546 1103 618 1049 b 876 1240 801 1049 844 1124 z "},"ÿ":{"ha":833,"x_min":0,"x_max":0,"o":"m 803 744 l 583 744 l 421 238 l 251 744 l 28 744 l 319 -3 b 246 -51 301 -40 282 -51 b 156 -22 218 -51 183 -39 l 85 -175 b 272 -226 139 -207 196 -226 b 517 -18 399 -226 460 -169 z m 667 826 l 667 1014 l 464 1014 l 464 826 z m 369 826 l 369 1014 l 167 1014 l 167 826 z "},"Ÿ":{"ha":994,"x_min":0,"x_max":0,"o":"m 978 972 l 735 972 l 499 582 l 267 972 l 17 972 l 390 383 l 390 0 l 604 0 l 604 388 z m 747 1049 l 747 1236 l 544 1236 l 544 1049 z m 450 1049 l 450 1236 l 247 1236 l 247 1049 z "},"Â":{"ha":1097,"x_min":0,"x_max":0,"o":"m 1064 0 l 647 979 l 450 979 l 33 0 l 251 0 l 340 218 l 751 218 l 840 0 z m 675 407 l 417 407 l 546 722 z m 547 1140 l 657 1049 l 819 1049 l 649 1267 l 449 1267 l 278 1049 l 438 1049 z "},"Ê":{"ha":931,"x_min":0,"x_max":0,"o":"m 857 0 l 857 190 l 329 190 l 329 394 l 788 394 l 788 585 l 329 585 l 329 782 l 850 782 l 850 972 l 117 972 l 117 0 z m 479 1140 l 589 1049 l 751 1049 l 581 1267 l 381 1267 l 210 1049 l 369 1049 z "},"Á":{"ha":1097,"x_min":0,"x_max":0,"o":"m 1064 0 l 647 979 l 450 979 l 33 0 l 251 0 l 340 218 l 751 218 l 840 0 z m 675 407 l 417 407 l 546 722 z m 621 1049 l 799 1215 l 617 1294 l 460 1049 z "},"Ë":{"ha":931,"x_min":0,"x_max":0,"o":"m 857 0 l 857 190 l 329 190 l 329 394 l 788 394 l 788 585 l 329 585 l 329 782 l 850 782 l 850 972 l 117 972 l 117 0 z m 731 1049 l 731 1236 l 528 1236 l 528 1049 z m 433 1049 l 433 1236 l 231 1236 l 231 1049 z "},"È":{"ha":931,"x_min":0,"x_max":0,"o":"m 857 0 l 857 190 l 329 190 l 329 394 l 788 394 l 788 585 l 329 585 l 329 782 l 850 782 l 850 972 l 117 972 l 117 0 z m 601 1049 l 444 1294 l 263 1215 l 440 1049 z "},"Í":{"ha":467,"x_min":0,"x_max":0,"o":"m 340 0 l 340 972 l 126 972 l 126 0 z m 306 1049 l 483 1215 l 301 1294 l 144 1049 z "},"Î":{"ha":467,"x_min":0,"x_max":0,"o":"m 340 0 l 340 972 l 126 972 l 126 0 z m 232 1140 l 342 1049 l 504 1049 l 333 1267 l 133 1267 l -37 1049 l 122 1049 z "},"Ï":{"ha":467,"x_min":0,"x_max":0,"o":"m 340 0 l 340 972 l 126 972 l 126 0 z m 483 1049 l 483 1236 l 281 1236 l 281 1049 z m 186 1049 l 186 1236 l -17 1236 l -17 1049 z "},"Ì":{"ha":467,"x_min":0,"x_max":0,"o":"m 340 0 l 340 972 l 126 972 l 126 0 z m 322 1049 l 165 1294 l -17 1215 l 161 1049 z "},"Ó":{"ha":1181,"x_min":0,"x_max":0,"o":"m 1107 486 l 1107 489 b 592 989 1107 765 892 989 b 74 486 292 989 74 763 l 74 483 b 589 -17 74 207 289 -17 b 1107 486 889 -17 1107 210 z m 883 483 b 592 181 883 317 764 181 b 297 486 419 181 297 319 l 297 489 b 589 792 297 656 417 792 b 883 486 761 792 883 653 z m 676 1049 l 854 1215 l 672 1294 l 515 1049 z "},"Ô":{"ha":1181,"x_min":0,"x_max":0,"o":"m 1107 486 l 1107 489 b 592 989 1107 765 892 989 b 74 486 292 989 74 763 l 74 483 b 589 -17 74 207 289 -17 b 1107 486 889 -17 1107 210 z m 883 483 b 592 181 883 317 764 181 b 297 486 419 181 297 319 l 297 489 b 589 792 297 656 417 792 b 883 486 761 792 883 653 z m 589 1140 l 699 1049 l 861 1049 l 690 1267 l 490 1267 l 319 1049 l 479 1049 z "},"":{"ha":1343,"x_min":0,"x_max":0,"o":"m 1206 0 l 1206 1042 l 140 1042 l 140 0 z m 1193 -144 l 1185 -97 l 1183 -97 l 1165 -133 l 1147 -97 l 1146 -97 l 1138 -144 l 1146 -144 l 1150 -117 l 1164 -146 l 1167 -146 l 1181 -117 l 1185 -144 z m 1119 -121 b 1097 -97 1119 -108 1110 -97 b 1072 -122 1082 -97 1072 -108 b 1096 -146 1072 -135 1082 -146 b 1119 -121 1110 -146 1119 -135 z m 1053 -133 b 1039 -139 1049 -136 1043 -139 b 1021 -121 1029 -139 1021 -133 b 1038 -104 1021 -111 1029 -104 b 1050 -108 1042 -104 1047 -106 l 1053 -101 b 1038 -97 1049 -99 1043 -97 b 1013 -122 1024 -97 1013 -108 b 1038 -146 1013 -136 1022 -146 b 1051 -142 1043 -146 1049 -144 z m 975 -99 l 965 -99 l 953 -118 l 938 -97 l 929 -99 l 949 -125 l 949 -144 l 957 -144 l 957 -125 z m 911 -144 l 911 -99 l 903 -99 l 903 -117 l 881 -117 l 881 -99 l 872 -99 l 872 -144 l 881 -144 l 881 -124 l 903 -124 l 903 -144 z m 850 -114 b 818 -99 850 -104 843 -96 b 818 -144 818 -99 818 -142 l 826 -144 l 826 -131 b 850 -114 840 -131 850 -125 z m 800 -144 l 778 -97 l 775 -97 l 754 -144 l 763 -144 l 767 -133 l 786 -133 l 792 -144 z m 742 -144 l 728 -126 b 738 -112 733 -124 738 -119 b 706 -99 738 -104 731 -96 l 706 -144 l 714 -144 l 714 -129 l 721 -129 l 732 -144 z m 682 -140 l 682 -119 l 661 -119 l 661 -126 l 674 -126 l 674 -136 b 665 -139 671 -137 668 -139 b 647 -122 656 -139 647 -132 b 664 -104 647 -111 654 -104 b 679 -110 669 -104 676 -107 l 682 -103 b 665 -97 678 -100 671 -97 b 639 -122 650 -97 639 -108 b 664 -146 639 -136 650 -146 b 682 -140 671 -146 678 -143 z m 621 -121 b 599 -97 621 -108 611 -97 b 574 -122 583 -97 574 -108 b 597 -146 574 -135 583 -146 b 621 -121 611 -146 621 -135 z m 556 -114 b 524 -99 556 -104 549 -96 b 524 -144 524 -99 524 -142 l 532 -144 l 532 -131 b 556 -114 546 -131 556 -125 z m 506 -99 l 496 -99 l 483 -118 l 468 -97 l 460 -99 l 479 -125 l 479 -144 l 488 -144 l 488 -125 z m 449 -99 l 407 -99 l 407 -106 l 424 -106 l 424 -144 l 432 -144 l 432 -106 l 449 -106 z m 371 -99 l 363 -99 l 353 -129 l 339 -97 l 338 -97 l 324 -129 l 314 -97 l 306 -99 l 322 -146 l 324 -146 l 338 -114 l 353 -146 l 354 -146 z m 293 -99 l 285 -99 l 275 -129 l 261 -97 l 260 -97 l 246 -129 l 236 -97 l 228 -99 l 244 -146 l 246 -146 l 260 -114 l 275 -146 l 276 -146 z m 215 -99 l 207 -99 l 197 -129 l 183 -97 l 182 -97 l 168 -129 l 158 -97 l 150 -99 l 167 -146 l 168 -146 l 182 -114 l 197 -146 l 199 -146 z m 994 -140 b 989 -135 994 -137 992 -135 b 983 -140 985 -135 983 -137 b 989 -146 983 -143 986 -146 b 994 -140 993 -146 994 -143 z m 394 -140 b 389 -135 394 -137 392 -135 b 383 -140 385 -135 383 -137 b 389 -146 383 -143 386 -146 b 394 -140 393 -146 394 -143 z m 776 953 l 774 953 b 760 965 774 953 769 965 b 756 961 757 965 756 964 l 756 929 b 763 922 756 921 763 922 l 763 919 l 739 919 l 739 922 b 746 929 739 922 746 921 l 746 961 b 742 965 746 964 746 965 b 728 953 733 965 728 953 l 725 953 b 726 969 725 953 726 964 b 751 968 731 968 738 968 b 775 969 764 968 772 968 b 776 953 776 964 776 953 z m 700 919 l 675 919 l 675 922 b 682 929 675 922 682 921 l 682 943 l 658 943 l 658 929 b 665 922 658 922 665 922 l 665 919 l 642 919 l 642 922 b 649 929 642 922 649 922 l 649 958 b 642 965 649 967 642 965 l 642 968 l 665 968 l 665 967 l 665 965 b 658 958 665 965 658 967 l 658 946 l 682 946 l 682 958 b 675 965 682 967 675 965 l 675 967 l 675 968 l 700 968 l 700 965 b 692 958 700 965 692 967 l 692 929 b 700 922 692 921 700 922 z m 610 922 l 610 919 l 568 919 l 565 935 l 568 936 b 582 924 568 936 572 924 l 588 924 b 593 928 590 924 593 924 l 593 943 l 588 943 b 579 935 579 943 579 935 l 576 935 l 576 953 l 579 953 b 588 946 579 953 579 946 l 593 946 l 593 960 b 588 964 593 964 590 964 l 582 964 b 569 953 574 964 569 953 l 567 954 l 569 968 l 610 968 l 610 965 b 603 958 610 965 603 967 l 603 929 b 610 922 603 921 610 922 z m 1149 858 l 197 858 l 197 867 l 1149 867 z m 967 750 b 935 719 967 728 947 719 b 883 772 908 719 883 743 b 915 803 883 794 903 803 b 967 750 942 803 967 778 z m 818 746 b 783 719 818 732 807 719 b 761 738 771 719 761 728 b 774 751 761 744 767 751 b 783 744 779 751 783 749 b 778 738 783 740 781 738 b 771 740 774 738 772 740 b 767 736 768 740 767 739 b 783 724 767 729 774 724 b 800 743 793 724 800 731 b 792 764 800 753 797 760 b 776 757 788 760 783 757 b 765 765 771 757 765 761 b 788 774 765 774 775 775 b 790 782 789 775 790 776 b 776 799 790 792 786 799 b 767 792 771 799 767 796 b 771 783 767 788 771 789 b 765 779 771 782 769 779 b 758 788 761 779 758 783 b 776 803 758 796 765 803 b 806 782 797 803 806 790 b 799 769 806 776 803 772 b 818 746 811 765 818 756 z m 410 746 b 375 719 410 732 399 719 b 353 738 363 719 353 728 b 365 751 353 744 358 751 b 375 744 371 751 375 749 b 369 738 375 740 372 738 b 363 740 365 738 364 740 b 358 736 360 740 358 739 b 375 724 358 729 365 724 b 392 743 385 724 392 731 b 383 764 392 753 389 760 b 368 757 379 760 375 757 b 357 765 363 757 357 761 b 379 774 357 774 367 775 b 382 782 381 775 382 776 b 368 799 382 792 378 799 b 358 792 363 799 358 796 b 363 783 358 788 363 789 b 357 779 363 782 361 779 b 350 788 353 779 350 783 b 368 803 350 796 357 803 b 397 782 389 803 397 790 b 390 769 397 776 394 772 b 410 746 403 765 410 756 z m 1139 725 l 1140 721 l 1100 721 l 1099 725 b 1108 736 1099 725 1111 724 l 1104 758 l 1071 758 l 1075 736 b 1089 725 1078 724 1089 725 l 1090 721 l 1050 721 l 1049 725 b 1058 736 1049 725 1061 724 l 1049 785 b 1035 796 1046 797 1035 796 l 1033 800 l 1074 800 l 1075 796 b 1065 785 1075 796 1063 797 l 1069 764 l 1103 764 l 1099 785 b 1086 796 1096 797 1086 796 l 1085 800 l 1124 800 l 1125 796 b 1115 785 1125 796 1113 797 l 1125 736 b 1139 725 1128 724 1139 725 z m 692 721 l 651 721 l 650 725 b 660 736 650 725 663 724 l 656 760 l 650 760 b 639 744 638 760 639 744 l 635 744 l 628 776 l 632 776 b 649 764 632 776 636 764 l 654 764 l 650 786 b 642 794 649 793 646 794 l 636 794 b 618 776 617 794 618 776 l 613 776 b 613 800 613 776 614 794 b 675 800 629 800 675 800 l 676 796 b 667 785 676 796 664 797 l 676 736 b 690 725 679 724 690 725 z m 281 725 l 282 721 l 242 721 l 240 725 b 250 736 240 725 253 724 l 246 757 b 239 753 243 757 240 756 l 222 721 b 196 721 211 721 196 721 l 194 725 b 214 736 194 725 207 724 l 226 758 b 200 779 213 760 200 768 b 228 800 200 793 211 800 b 265 800 244 800 265 800 l 267 796 b 257 785 267 796 254 797 l 267 736 b 281 725 269 724 281 725 z m 556 724 b 550 719 556 721 553 719 b 533 729 543 719 536 724 b 499 711 518 729 524 711 b 478 728 489 711 478 719 b 485 738 478 732 479 738 b 492 731 489 738 492 735 b 489 724 492 728 489 728 b 496 718 489 721 492 718 b 528 736 506 718 508 736 b 499 799 504 757 517 799 b 492 790 493 799 492 794 b 486 782 492 785 492 782 b 479 789 482 782 479 785 b 497 803 479 794 488 803 b 538 736 540 803 524 746 b 556 724 550 735 556 728 z m 1149 660 l 197 660 l 197 668 l 1149 668 z m 1149 525 l 1099 525 l 1099 564 l 1083 564 l 1083 474 l 1103 474 l 1103 428 l 990 428 l 990 474 l 1010 474 l 1010 564 l 994 564 l 994 525 l 944 525 l 944 611 l 1149 611 z m 900 564 l 881 564 l 829 501 l 829 474 l 850 474 l 850 428 l 738 428 l 738 474 l 757 474 l 757 500 l 706 564 l 689 564 l 689 611 l 775 611 l 775 564 l 761 564 l 782 532 l 803 564 l 788 564 l 788 611 l 900 611 z m 636 428 l 524 428 l 524 474 l 544 474 l 544 500 l 503 500 b 438 556 463 500 438 524 b 503 611 438 586 463 611 l 636 611 l 636 564 l 617 564 l 617 474 l 636 474 z m 393 428 l 197 428 l 197 513 l 254 513 l 254 474 l 300 474 l 300 503 l 267 503 l 267 536 l 300 536 l 300 564 l 254 564 l 254 525 l 197 525 l 197 611 l 393 611 l 393 564 l 374 564 l 374 474 l 393 474 z m 1149 376 l 197 376 l 197 385 l 1149 385 z m 1011 267 b 979 236 1011 244 992 236 b 928 289 953 236 928 260 b 960 319 928 311 947 319 b 1011 267 986 319 1011 294 z m 282 301 l 279 299 b 263 308 275 303 271 308 b 250 290 254 308 250 301 b 257 256 250 283 253 269 b 271 243 261 240 271 243 l 272 238 l 233 238 l 232 243 b 240 264 232 243 246 240 b 207 310 235 286 225 310 b 196 301 200 310 196 307 l 192 303 b 208 319 192 314 200 319 b 238 288 224 319 232 306 b 257 319 236 310 244 319 b 282 301 271 319 276 311 z m 1143 238 l 1103 238 l 1101 242 b 1111 253 1101 242 1114 240 l 1107 276 l 1101 276 b 1090 261 1089 276 1090 261 l 1086 261 l 1079 293 l 1083 293 b 1100 281 1083 293 1088 281 l 1106 281 l 1101 303 b 1093 311 1100 310 1097 311 l 1088 311 b 1069 293 1068 311 1069 293 l 1064 293 b 1064 317 1064 293 1065 311 b 1126 317 1081 317 1126 317 l 1128 313 b 1118 301 1128 313 1115 314 l 1128 253 b 1142 242 1131 240 1142 242 z m 863 313 b 851 300 863 313 847 315 l 858 269 b 832 236 861 256 864 236 b 793 274 807 236 796 258 l 788 300 b 772 313 785 314 772 313 l 771 317 l 804 317 l 804 313 b 794 300 804 313 792 315 l 800 274 b 828 243 804 257 813 243 b 843 271 847 243 847 253 l 836 300 b 822 313 833 314 822 313 l 821 317 l 861 317 z m 725 242 l 726 238 l 697 238 l 696 242 b 704 256 696 242 707 240 l 696 297 l 654 236 l 650 238 l 639 300 b 626 313 636 313 626 313 l 625 317 l 654 317 l 656 313 b 646 300 656 313 643 313 l 653 258 l 693 317 l 713 317 l 714 313 b 703 300 714 313 700 314 l 713 256 b 725 242 717 242 725 242 z m 575 238 b 531 238 575 238 546 238 b 482 286 507 238 482 257 b 517 317 482 307 500 317 b 558 317 526 317 546 317 l 560 313 b 549 299 549 311 546 307 l 560 256 b 574 243 564 240 574 243 z m 425 242 l 426 238 l 386 238 l 385 242 b 394 253 385 242 397 240 l 390 274 b 383 269 388 274 385 272 l 367 238 b 340 238 356 238 340 238 l 339 242 b 358 253 339 242 351 240 l 371 275 b 344 296 357 276 344 285 b 372 317 344 310 356 317 b 410 317 389 317 410 317 l 411 313 b 401 301 411 313 399 314 l 411 253 b 425 242 414 240 425 242 z m 1149 176 l 197 176 l 197 185 l 1149 185 z m 964 64 l 944 64 l 944 67 b 951 74 944 67 951 68 l 951 101 l 917 63 l 913 63 l 913 101 b 904 110 913 108 904 110 l 904 113 l 925 113 l 925 110 b 917 101 925 110 917 108 l 917 76 l 950 113 l 964 113 l 964 110 b 956 101 964 110 956 106 l 956 74 b 964 67 956 68 964 67 z m 879 67 l 879 64 l 838 64 l 835 79 l 838 81 b 851 68 838 81 842 68 l 857 68 b 863 72 860 68 863 68 l 863 88 l 857 88 b 849 79 849 88 849 79 l 846 79 l 846 97 l 849 97 b 857 90 849 97 849 90 l 863 90 l 863 104 b 857 108 863 108 860 108 l 851 108 b 839 97 843 108 839 97 l 836 99 l 839 113 l 879 113 l 879 110 b 872 103 879 110 872 111 l 872 74 b 879 67 872 65 879 67 z m 810 113 l 810 110 b 800 101 810 110 804 110 l 783 64 l 782 64 l 769 86 l 758 64 b 757 64 758 63 757 64 l 756 64 l 738 101 b 729 110 735 108 729 110 l 729 113 l 747 113 l 747 110 b 744 101 747 110 742 108 l 756 76 l 765 94 l 761 101 b 751 110 756 110 751 110 l 750 113 l 786 113 l 786 110 b 778 101 786 110 781 107 l 772 90 l 779 76 l 792 103 b 789 110 794 108 789 110 l 789 113 z m 667 110 b 657 103 667 110 661 110 l 646 86 l 646 75 b 653 67 646 67 653 67 l 653 64 l 629 64 l 629 67 b 636 75 629 67 636 67 l 636 86 l 625 103 b 614 110 621 110 614 110 l 614 113 l 635 113 l 635 110 b 631 103 635 110 626 110 l 639 90 l 647 103 b 646 110 651 110 646 110 l 646 113 l 667 113 z m 590 89 b 563 63 590 75 581 63 b 535 89 544 63 535 75 b 563 114 535 103 544 114 b 590 89 581 114 590 103 z m 506 64 l 482 64 l 482 67 b 489 74 482 67 489 67 l 489 86 b 479 81 483 86 483 86 l 469 64 l 454 64 l 454 67 b 465 74 454 67 460 67 l 475 88 b 463 100 468 90 463 94 b 481 113 463 107 469 113 b 506 113 492 113 506 113 l 506 110 b 499 101 506 110 499 110 l 499 74 b 506 67 499 67 506 67 z m 429 64 l 404 64 l 404 67 b 413 75 404 67 413 67 l 413 88 b 407 85 410 88 408 86 l 396 74 b 399 67 390 67 399 67 l 399 64 l 375 64 l 375 67 b 385 74 375 67 382 71 l 403 92 l 389 104 b 378 110 385 108 378 110 l 378 113 l 397 113 l 397 110 b 396 104 397 110 392 108 l 407 93 b 413 90 408 92 410 90 l 413 103 b 404 110 413 110 404 110 l 404 113 l 429 113 l 429 110 b 421 103 429 110 421 110 l 421 75 b 429 67 421 68 429 67 z m 842 -115 b 826 -124 842 -122 835 -124 l 826 -106 b 842 -115 838 -104 842 -108 z m 729 -114 b 714 -122 729 -118 726 -124 l 714 -106 b 729 -114 722 -104 729 -107 z m 547 -115 b 532 -124 547 -121 540 -124 l 532 -106 b 547 -115 543 -104 547 -108 z m 783 -128 l 769 -128 l 776 -111 z m 1111 -122 b 1096 -139 1111 -132 1104 -139 b 1081 -121 1088 -139 1081 -132 b 1096 -104 1081 -111 1088 -104 b 1111 -122 1104 -104 1111 -110 z m 613 -122 b 597 -139 613 -132 606 -139 b 582 -121 589 -139 582 -132 b 597 -104 582 -111 589 -104 b 613 -122 606 -104 613 -110 z m 244 761 l 240 788 b 228 794 239 793 236 794 b 217 782 219 794 217 790 b 238 761 217 774 222 761 z m 786 768 b 776 769 783 769 779 769 b 771 765 772 769 771 768 b 776 763 771 764 772 763 b 786 768 779 763 783 764 z m 378 768 b 368 769 375 769 371 769 b 363 765 364 769 363 768 b 368 763 363 764 364 763 b 378 768 371 763 375 764 z m 950 743 b 915 797 950 772 932 797 b 900 778 906 797 900 790 b 935 725 900 750 918 725 b 950 743 946 725 950 731 z m 544 533 l 544 564 l 529 564 b 511 549 517 564 511 557 b 529 533 511 540 517 533 z m 389 278 l 385 304 b 372 311 383 310 381 311 b 361 299 364 311 361 307 b 382 278 361 290 367 278 z m 994 260 b 960 314 994 289 976 314 b 944 294 950 314 944 307 b 979 242 944 267 963 242 b 994 260 990 242 994 247 z m 546 253 l 533 301 b 525 311 531 310 531 310 l 517 311 b 497 288 504 311 497 303 b 533 243 497 265 513 243 l 540 243 b 546 253 544 243 546 244 z m 768 110 b 768 97 765 110 763 107 b 768 110 772 106 774 110 z m 489 89 l 489 103 b 483 108 489 107 488 108 b 474 100 476 108 474 104 b 485 89 474 92 479 89 b 489 89 488 89 488 89 z m 579 89 b 563 111 579 101 575 111 b 546 89 551 111 546 101 b 563 65 546 76 551 65 b 579 89 575 65 579 76 z "},"Ò":{"ha":1181,"x_min":0,"x_max":0,"o":"m 1107 486 l 1107 489 b 592 989 1107 765 892 989 b 74 486 292 989 74 763 l 74 483 b 589 -17 74 207 289 -17 b 1107 486 889 -17 1107 210 z m 883 483 b 592 181 883 317 764 181 b 297 486 419 181 297 319 l 297 489 b 589 792 297 656 417 792 b 883 486 761 792 883 653 z m 665 1049 l 508 1294 l 326 1215 l 504 1049 z "},"Ú":{"ha":1050,"x_min":0,"x_max":0,"o":"m 949 424 l 949 972 l 735 972 l 735 415 b 525 182 735 261 656 182 b 315 422 394 182 315 264 l 315 972 l 101 972 l 101 417 b 522 -15 101 131 261 -15 b 949 424 783 -15 949 129 z m 590 1042 l 768 1208 l 586 1288 l 429 1042 z "},"Û":{"ha":1050,"x_min":0,"x_max":0,"o":"m 949 424 l 949 972 l 735 972 l 735 415 b 525 182 735 261 656 182 b 315 422 394 182 315 264 l 315 972 l 101 972 l 101 417 b 522 -15 101 131 261 -15 b 949 424 783 -15 949 129 z m 524 1140 l 633 1049 l 796 1049 l 625 1267 l 425 1267 l 254 1049 l 414 1049 z "},"Ù":{"ha":1050,"x_min":0,"x_max":0,"o":"m 949 424 l 949 972 l 735 972 l 735 415 b 525 182 735 261 656 182 b 315 422 394 182 315 264 l 315 972 l 101 972 l 101 417 b 522 -15 101 131 261 -15 b 949 424 783 -15 949 129 z m 621 1042 l 464 1288 l 282 1208 l 460 1042 z "}}}
